<svg width="30" height="30" viewBox="0 0 30 30" fill="none" xmlns="http://www.w3.org/2000/svg">
<rect width="30" height="30" rx="15" fill="#FF492C"/>
<path d="M18.5821 18.8256C19.244 19.9741 19.8984 21.1096 20.5524 22.2439C17.6565 24.4609 13.151 24.7289 9.81567 22.1757C5.97742 19.2353 5.34657 14.218 7.40151 10.6064C9.76498 6.45219 14.1878 5.53347 17.0355 6.20713C16.9585 6.37444 15.2529 9.91276 15.2529 9.91276C15.2529 9.91276 15.1181 9.92162 15.0418 9.9231C14.2001 9.95877 13.5732 10.1546 12.9013 10.502C12.1641 10.8867 11.5323 11.4461 11.0612 12.1313C10.5901 12.8165 10.294 13.6067 10.1988 14.4328C10.0994 15.2705 10.2152 16.1198 10.5353 16.9003C10.806 17.5602 11.1888 18.1463 11.7021 18.6411C12.4894 19.4009 13.4263 19.8713 14.5124 20.027C15.5408 20.1747 16.5299 20.0285 17.4567 19.5628C17.8044 19.3883 18.1001 19.1957 18.4458 18.9314C18.4899 18.9029 18.529 18.8667 18.5821 18.8256Z" fill="white"/>
<path d="M18.5867 8.75481C18.4187 8.58947 18.2629 8.43693 18.1079 8.2834C18.0154 8.19187 17.9264 8.09665 17.8316 8.00734C17.7977 7.97511 17.7578 7.93107 17.7578 7.93107C17.7578 7.93107 17.79 7.86267 17.8038 7.83462C17.9852 7.47072 18.2693 7.20475 18.6064 6.99316C18.9792 6.7574 19.4134 6.63744 19.8543 6.64845C20.4185 6.65952 20.9431 6.80001 21.3857 7.17842C21.7124 7.45768 21.88 7.81198 21.9095 8.23493C21.9587 8.94845 21.6635 9.4949 21.0772 9.87627C20.7327 10.1007 20.3612 10.2741 19.9887 10.4796C19.7832 10.593 19.6076 10.6926 19.4068 10.8978C19.2301 11.1038 19.2215 11.2979 19.2215 11.2979L21.8903 11.2945V12.4831H17.7709C17.7709 12.4831 17.7709 12.4019 17.7709 12.3682C17.7551 11.7841 17.8233 11.2344 18.0907 10.704C18.3367 10.2173 18.7191 9.86101 19.1785 9.58668C19.5323 9.37533 19.9048 9.19547 20.2593 8.98511C20.478 8.85544 20.6326 8.66525 20.6313 8.38944C20.6313 8.15275 20.4591 7.94238 20.2131 7.87669C19.6329 7.72021 19.0424 7.96994 18.7353 8.5009C18.6906 8.5784 18.6448 8.65541 18.5867 8.75481Z" fill="white"/>
<path d="M23.7504 17.56L21.5013 13.676H17.0507L14.7871 17.6001H19.2705L21.4829 21.4656L23.7504 17.56Z" fill="white"/>
</svg>
