<svg width="258" height="98" viewBox="0 0 258 98" fill="none" xmlns="http://www.w3.org/2000/svg">
<mask id="mask0_8490_5031" style="mask-type:luminance" maskUnits="userSpaceOnUse" x="13" y="9" width="233" height="80">
<path d="M245.052 9H13.9478V88.5H245.052V9Z" fill="white"/>
</mask>
<g mask="url(#mask0_8490_5031)">
<path d="M99.5033 22.3781C99.5033 24.17 98.9736 25.9216 97.9808 27.4113C96.9889 28.901 95.5782 30.062 93.9281 30.7474C92.278 31.4327 90.4625 31.6116 88.7107 31.2614C86.9599 30.9113 85.3514 30.0478 84.0886 28.7802C82.8268 27.5126 81.9671 25.8979 81.6204 24.1403C81.2719 22.3827 81.4522 20.5612 82.1372 18.9062C82.8212 17.2512 83.9795 15.8371 85.466 14.8428C86.9515 13.8485 88.6978 13.3187 90.4828 13.3203C92.8761 13.3224 95.1705 14.2777 96.8613 15.9762C98.553 17.6746 99.5033 19.9772 99.5033 22.3781Z" fill="#474747"/>
<path d="M201.32 78.1C201.32 74.7286 203.392 72.4537 207.445 72.4537C212.183 72.4537 213.561 74.1398 215.241 80.9722C215.836 83.3451 217.214 84.7355 220.95 84.7355C225.982 84.7355 228.746 81.9622 228.746 77.8957C228.746 74.3358 225.134 71.4636 218.144 67.0042C210.446 62.2508 206.197 57.6935 206.197 51.0571C206.197 40.7554 217.615 34.5205 228.077 34.5205C239.821 34.5205 244.388 39.569 244.388 44.3394C244.388 47.5058 242.316 49.1916 238.761 49.1916C234.316 49.1916 232.938 47.4077 231.421 42.0647C230.728 39.3891 229.349 38.3008 226.683 38.3008C222.442 38.3008 219.572 40.4773 219.572 44.4375C219.572 48.2015 223.282 50.5828 231.478 55.7291C239.177 60.2865 242.634 65.2376 242.634 71.079C242.634 80.6856 232.31 88.5164 219.376 88.5164C206.442 88.5164 201.312 83.2629 201.312 78.1166" fill="#474747"/>
<path d="M36.187 49.9852C36.187 46.3444 39.115 42.286 44.8964 42.286C50.8663 42.286 53.4842 45.7714 53.4842 49.9852V76.063C53.4842 79.9086 53.3289 81.1603 52.7992 82.6088C52.3749 83.7782 51.3229 84.0897 49.7412 84.515C48.7872 84.7276 48.2566 85.0474 48.2566 86.1512C48.2067 86.5284 48.2982 86.9111 48.5136 87.2244C48.729 87.5378 49.0535 87.7597 49.4232 87.8457H134.049C135.525 87.8457 136.904 87.7393 136.904 86.0449C136.904 84.7692 136.373 84.6629 135.322 84.343C133.103 83.8198 130.779 83.181 130.567 80.3255C130.355 78.2067 130.355 54.1423 130.355 49.8705C130.355 46.1397 133.617 42.2939 138.803 42.2939C143.795 42.2939 146.69 45.567 146.69 49.9935C146.69 54.134 146.617 71.3744 146.617 77.0364C146.617 81.8231 146.617 83.2873 142.816 84.4493C141.756 84.7692 141.332 84.9818 141.332 86.0865C141.332 87.78 142.498 87.8863 143.975 87.8863H165.178C168.032 87.8863 168.978 87.6737 168.978 85.8739C168.978 84.7036 168.244 84.4909 167.078 84.1711C163.702 83.353 163.172 82.5839 163.172 79.5157C163.172 79.5157 163.122 54.1996 163.122 49.9611C163.122 45.5507 166.76 42.3757 171.465 42.3757C171.465 42.3757 179.221 41.844 179.221 50.4104C179.221 52.2278 179.433 78.1411 179.433 78.1411C179.433 83.328 178.063 83.6479 175.951 84.2774C174.785 84.5973 174.156 84.8099 174.156 85.9145C174.156 87.7144 175.421 87.927 176.473 87.927H199.91C201.395 87.8207 201.607 87.1829 201.607 86.2335C201.607 84.7442 200.865 84.5316 199.601 84.2127C196.216 83.3937 196.127 81.6761 196.127 79.8753V58.708C196.127 45.1334 195.482 43.3413 194.104 40.9112C190.41 34.3653 181.121 34.2344 180.175 34.2344C174.236 34.2837 168.537 36.5941 164.231 40.6985C162.332 42.4986 162.119 42.4986 161.907 42.4986C161.483 42.4986 161.378 42.3923 159.795 40.2729C156.729 36.0345 152.513 34.3407 147.229 34.3407C141.421 34.3407 136.887 36.5663 131.733 41.2303C130.999 41.9668 130.787 41.9668 130.469 41.9668C129.939 41.9668 129.939 41.5413 129.939 40.4857V35.9281C129.939 35.2981 129.939 34.4471 129.205 34.4471C128.887 34.4471 128.675 34.4471 126.758 35.609C120.74 39.1111 113.881 40.9112 109.445 41.8604C107.545 42.1793 106.999 42.286 106.999 43.554C106.999 44.3725 107.105 45.0432 108.369 45.2559C113.441 46.0741 113.84 46.2053 113.947 50.0185V79.1561C113.947 79.8513 114.004 84.7526 106.852 84.7526C99.6996 84.7526 99.4472 80.4078 99.4472 79.0249L99.3899 36.6482C99.3899 35.3717 99.2919 34.5208 98.4516 34.5208C98.2399 34.5208 98.0282 34.5208 96.9679 35.2654C91.8892 38.2726 86.3676 40.4516 80.6085 41.7212C77.4359 42.3595 77.3462 42.4659 77.3462 43.5215C77.3462 44.3397 77.5579 45.1168 78.6182 45.3215C81.5708 46.0662 82.7938 46.3444 82.7938 48.079V79.99C82.7938 80.5797 82.7938 84.7442 76.7259 84.7442C70.659 84.7442 70.2754 81.1353 70.2754 79.99V51.712C70.2754 46.8433 69.852 42.3923 67.014 39.4384C63.7517 35.9445 59.4134 34.4634 54.6582 34.4634C48.3223 34.4634 42.8331 36.9181 37.9808 41.0093C36.6025 42.2776 36.3909 42.2776 36.2848 42.2776C35.7629 42.2776 35.7629 41.7457 35.7629 40.5839L35.869 22.4681V11.3564C35.869 10.08 35.869 9.13086 35.0533 9.13086C34.8414 9.13086 34.6293 9.13086 33.5773 9.87539C28.4956 12.8813 22.9713 15.0603 17.2098 16.3313C14.0457 16.9696 13.9478 17.0759 13.9478 18.1315C13.9478 18.9497 14.1598 19.7188 15.2118 19.9316C18.1722 20.6762 18.6941 20.7498 19.0121 22.689C19.2242 24.0636 19.2242 31.0187 19.2242 33.2443V76.7092C19.2242 81.9044 19.2242 83.255 15.7419 84.5483C14.5838 84.8672 13.9478 85.0798 13.9478 86.1845C13.9478 87.878 14.7633 87.878 16.6961 87.878H38.4217C40.3214 87.878 41.684 87.7717 41.684 85.8655C41.684 84.8015 40.6237 84.5889 39.6771 84.3763C36.0891 83.4269 35.7711 82.3629 35.7711 79.72L36.187 49.9852Z" fill="#474747"/>
</g>
</svg>
