<svg width="200" height="60" viewBox="0 0 200 60" fill="none" xmlns="http://www.w3.org/2000/svg">
<path fill-rule="evenodd" clip-rule="evenodd" d="M26.1564 10.9857C31.3974 5.056 40.077 3.31648 47.2124 6.73923C56.6922 11.2873 60.1511 22.873 54.9896 31.81L43.378 51.8925C42.7292 53.0144 41.6616 53.8334 40.4095 54.1689C39.1573 54.5044 37.8233 54.3292 36.6999 53.6824L50.7576 29.3644C54.5022 22.8781 51.9974 14.4706 45.1245 11.1603C39.967 8.67664 33.6628 9.91739 29.8531 14.1887C27.7514 16.5335 26.5716 19.5609 26.5323 22.7094C26.4929 25.8579 27.5965 28.9139 29.639 31.3107C30.0061 31.7404 30.4008 32.1459 30.8211 32.5243L22.6146 46.7463C22.2937 47.3023 21.8664 47.7893 21.3571 48.1805C20.8479 48.5713 20.2666 48.8579 19.6465 49.0241C19.0264 49.1904 18.3798 49.2328 17.7433 49.149C17.1068 49.0651 16.4931 48.8569 15.937 48.5362L24.8463 33.0961C23.5666 31.251 22.6476 29.1806 22.1377 26.9939L16.6783 36.4742C16.0293 37.5965 14.9615 38.415 13.7094 38.7505C12.4573 39.0865 11.1232 38.9113 10 38.2641L24.1182 13.8097C24.7059 12.8054 25.3884 11.8598 26.1564 10.9857ZM42.4515 18.7696C45.8517 20.7333 47.0259 25.1003 45.0584 28.499L31.5202 51.8896C30.8714 53.0115 29.8033 53.8304 28.5512 54.1659C27.299 54.5014 25.9651 54.3262 24.8419 53.6795L37.4128 31.9027C36.4039 31.6906 35.4537 31.2618 34.6269 30.6461C33.8 30.0309 33.1167 29.2433 32.6238 28.338C32.131 27.4327 31.8404 26.4312 31.7723 25.4028C31.7042 24.3743 31.8601 23.3432 32.2296 22.3809C32.5987 21.4186 33.1724 20.5478 33.911 19.8288C34.6496 19.1098 35.5351 18.5596 36.507 18.2162C37.479 17.8729 38.514 17.7446 39.5402 17.8401C40.5664 17.9357 41.56 18.2528 42.4515 18.7696ZM37.5273 23.1655C37.2944 23.3441 37.0991 23.5668 36.9525 23.8209C36.7315 24.2035 36.6284 24.6431 36.6575 25.0839C36.6866 25.5248 36.8455 25.9472 37.1144 26.2976C37.3837 26.6481 37.7503 26.9109 38.1687 27.0529C38.587 27.1949 39.0385 27.2097 39.4652 27.0953C39.892 26.9809 40.2748 26.7426 40.5664 26.4104C40.8575 26.0782 41.0439 25.6671 41.1017 25.2291C41.1589 24.7911 41.0854 24.3458 40.89 23.9496C40.6946 23.5533 40.3863 23.2239 40.0035 23.003C39.7499 22.8563 39.4691 22.7611 39.1786 22.7228C38.8875 22.6845 38.592 22.7039 38.3088 22.7799C38.0256 22.8558 37.7597 22.9868 37.5273 23.1655Z" fill="#474747"/>
<path fill-rule="evenodd" clip-rule="evenodd" d="M26.1564 10.9857C31.3974 5.056 40.077 3.31648 47.2124 6.73923C56.6922 11.2873 60.1511 22.873 54.9896 31.81L43.378 51.8925C42.7292 53.0144 41.6616 53.8334 40.4095 54.1689C39.1573 54.5044 37.8233 54.3292 36.6999 53.6824L50.7576 29.3644C54.5022 22.8781 51.9974 14.4706 45.1245 11.1603C39.967 8.67664 33.6628 9.91739 29.8531 14.1887C27.7514 16.5335 26.5716 19.5609 26.5323 22.7094C26.4929 25.8579 27.5965 28.9139 29.639 31.3107C30.0061 31.7404 30.4008 32.1459 30.8211 32.5243L22.6146 46.7463C22.2937 47.3023 21.8664 47.7893 21.3571 48.1805C20.8479 48.5713 20.2666 48.8579 19.6465 49.0241C19.0264 49.1904 18.3798 49.2328 17.7433 49.149C17.1068 49.0651 16.4931 48.8569 15.937 48.5362L24.8463 33.0961C23.5666 31.251 22.6476 29.1806 22.1377 26.9939L16.6783 36.4742C16.0293 37.5965 14.9615 38.415 13.7094 38.7505C12.4573 39.0865 11.1232 38.9113 10 38.2641L24.1182 13.8097C24.7059 12.8054 25.3884 11.8598 26.1564 10.9857ZM42.4515 18.7696C45.8517 20.7333 47.0259 25.1003 45.0584 28.499L31.5202 51.8896C30.8714 53.0115 29.8033 53.8304 28.5512 54.1659C27.299 54.5014 25.9651 54.3262 24.8419 53.6795L37.4128 31.9027C36.4039 31.6906 35.4537 31.2618 34.6269 30.6461C33.8 30.0309 33.1167 29.2433 32.6238 28.338C32.131 27.4327 31.8404 26.4312 31.7723 25.4028C31.7042 24.3743 31.8601 23.3432 32.2296 22.3809C32.5987 21.4186 33.1724 20.5478 33.911 19.8288C34.6496 19.1098 35.5351 18.5596 36.507 18.2162C37.479 17.8729 38.514 17.7446 39.5402 17.8401C40.5664 17.9357 41.56 18.2528 42.4515 18.7696ZM37.5273 23.1655C37.2944 23.3441 37.0991 23.5668 36.9525 23.8209C36.7315 24.2035 36.6284 24.6431 36.6575 25.0839C36.6866 25.5248 36.8455 25.9472 37.1144 26.2976C37.3837 26.6481 37.7503 26.9109 38.1687 27.0529C38.587 27.1949 39.0385 27.2097 39.4652 27.0953C39.892 26.9809 40.2748 26.7426 40.5664 26.4104C40.8575 26.0782 41.0439 25.6671 41.1017 25.2291C41.1589 24.7911 41.0854 24.3458 40.89 23.9496C40.6946 23.5533 40.3863 23.2239 40.0035 23.003C39.7499 22.8563 39.4691 22.7611 39.1786 22.7228C38.8875 22.6845 38.592 22.7039 38.3088 22.7799C38.0256 22.8558 37.7597 22.9868 37.5273 23.1655Z" fill="#474747"/>
<path fill-rule="evenodd" clip-rule="evenodd" d="M66.2422 42.4934L76.3885 16.4766H82.3379L92.4843 42.4934H86.8127L84.6276 36.6659H74.0994L71.9138 42.4934H66.2422ZM82.893 31.9824C82.1993 29.9474 81.5806 28.1263 81.037 26.5191C80.4938 24.9118 79.9387 23.2525 79.3719 21.5412C78.8055 23.2525 78.2446 24.9118 77.6895 26.5191C77.1463 28.1263 76.5277 29.9474 75.8335 31.9824H82.893ZM94.2017 19.2517C94.2017 18.4192 94.4562 17.7485 94.9649 17.2397C95.4735 16.7309 96.144 16.4766 96.9768 16.4766C97.8091 16.4766 98.4801 16.7309 98.9887 17.2397C99.4974 17.7485 99.7519 18.4192 99.7519 19.2517C99.7519 20.0842 99.4974 20.7549 98.9887 21.2637C98.4801 21.7724 97.8091 22.0268 96.9768 22.0268C96.144 22.0268 95.4735 21.7724 94.9649 21.2637C94.4562 20.7549 94.2017 20.0842 94.2017 19.2517ZM94.4789 42.4934V25.1489H99.4742V42.4934H94.4789ZM103.707 25.1489V42.4934H108.701V34.8444C108.701 33.0175 109.112 31.6124 109.933 30.6297C110.754 29.6353 111.835 29.1381 113.177 29.1381C113.824 29.1381 114.483 29.2479 115.154 29.4677L115.848 25.1489C115.05 24.9176 114.275 24.8019 113.523 24.8019C111.315 24.8019 109.581 25.7444 108.32 27.6291V25.1489H103.707ZM117.755 42.4934V16.4766H122.751V26.866C123.479 26.2184 124.312 25.7154 125.249 25.357C126.185 24.987 127.197 24.8019 128.284 24.8019C129.914 24.8019 131.365 25.1951 132.637 25.9814C133.909 26.7561 134.909 27.8257 135.638 29.1902C136.366 30.5428 136.73 32.0865 136.73 33.8212C136.73 35.5558 136.366 37.105 135.638 38.4696C134.909 39.8224 133.909 40.892 132.637 41.6784C131.365 42.4529 129.914 42.8402 128.284 42.8402C127.162 42.8402 126.115 42.6493 125.144 42.2679C124.173 41.8747 123.323 41.3256 122.595 40.6201L122.473 42.4934H117.755ZM127.65 38.5041C128.922 38.5041 129.974 38.0591 130.806 37.1686C131.639 36.2781 132.055 35.1626 132.055 33.8212C132.055 32.4798 131.639 31.3638 130.806 30.4738C129.974 29.5833 128.922 29.1381 127.65 29.1381C126.378 29.1381 125.326 29.5833 124.493 30.4738C123.66 31.3638 123.244 32.4798 123.244 33.8212C123.244 35.1626 123.66 36.2781 124.493 37.1686C125.326 38.0591 126.378 38.5041 127.65 38.5041ZM145.077 33.6303L141.018 25.1489H135.798L143.88 41.6261L139.926 51.1656H145.181L155.969 25.1489H150.697L146.013 36.4577C145.898 35.8908 145.759 35.3703 145.598 34.8967C145.436 34.4226 145.262 34.0003 145.077 33.6303ZM156.646 25.1489H159.508V20.8127H164.503V25.1489H168.718V29.485H164.503V35.8676C164.503 36.6886 164.763 37.3364 165.283 37.8105C165.815 38.2727 166.486 38.5041 167.295 38.5041C167.897 38.5041 168.515 38.3714 169.151 38.105V42.1984C168.053 42.6266 166.972 42.8402 165.908 42.8402C163.85 42.8402 162.266 42.2911 161.156 41.1924C160.057 40.0824 159.508 38.4982 159.508 36.4399V29.485H156.646V25.1489ZM178.188 37.6541C177.355 37.0532 176.783 36.2727 176.471 35.3126H190V33.8039C190 32.0579 189.606 30.5083 188.82 29.1554C188.034 27.8026 186.959 26.7388 185.594 25.964C184.241 25.1893 182.692 24.8019 180.946 24.8019C179.188 24.8019 177.615 25.1951 176.228 25.9814C174.852 26.7561 173.765 27.8199 172.967 29.1728C172.169 30.5142 171.77 32.0461 171.77 33.7689C171.77 35.5149 172.186 37.0764 173.019 38.4523C173.852 39.8165 175.002 40.892 176.471 41.6784C177.939 42.4529 179.633 42.8402 181.553 42.8402C182.755 42.8402 184.01 42.6439 185.316 42.2507C186.634 41.8575 187.965 41.1347 189.305 40.0824L186.288 36.475C185.64 37.0877 184.918 37.5904 184.12 37.9836C183.333 38.3655 182.339 38.5564 181.136 38.5564C180.015 38.5564 179.032 38.2555 178.188 37.6541ZM184.562 31.6396C184.286 31.0253 183.89 30.5034 183.374 30.0746C182.622 29.4503 181.72 29.1381 180.668 29.1381C179.604 29.1381 178.679 29.4561 177.893 30.0919C177.366 30.5251 176.962 31.0406 176.681 31.6396H184.562Z" fill="#474747"/>
</svg>
