<svg width="164" height="90" viewBox="0 0 164 90" fill="none" xmlns="http://www.w3.org/2000/svg">
<path fill-rule="evenodd" clip-rule="evenodd" d="M0.202284 0.91288C1.88514 0.761147 2.06448 2.12214 3.80711 1.91524V2.9176C4.58416 3.09233 4.51979 2.43022 5.00717 2.31527C5.98654 2.27849 6.29 3.73144 5.80721 4.51769C4.45541 3.94294 2.81396 2.78886 1.00235 3.31763C0.744868 2.50378 -0.0689965 2.25089 0.202284 0.91288ZM70.8961 3.11531H71.4985C71.5537 3.43717 71.3099 3.46016 71.2961 3.71765H70.8961V3.11531ZM70.2938 3.71765C71.0525 4.0533 69.857 5.24877 68.8914 5.12002V4.31998C69.6777 4.43953 69.9306 4.02571 70.2938 3.71765ZM14.6215 5.92008C15.5136 6.46724 17.5734 6.79368 17.0263 8.1225C16.0239 7.79145 15.6055 6.87186 14.4238 6.72012C14.3411 6.30171 14.5618 6.19136 14.6262 5.92008H14.6215ZM145.793 7.72248C146.022 6.93163 146.022 8.51333 145.793 7.72248V7.72248ZM148 6.52241C148.229 6.75691 148.225 7.23049 148.202 7.72248C147.002 8.66046 144.85 8.64208 144.197 10.1272C141.962 9.58926 141.627 11.925 139.792 11.1296C139.838 10.3709 140.813 10.5502 140.592 9.52949C142.891 8.35701 145.112 7.10635 148.004 6.527L148 6.52241ZM17.624 7.32246C18.6586 7.42361 18.5666 8.64668 19.8265 8.52254C19.9092 8.94095 19.6885 9.0513 19.6241 9.32258C18.493 9.32258 18.608 8.07192 17.4217 8.1225C17.3389 7.70408 17.5596 7.59374 17.624 7.32246ZM58.477 9.12487C58.7713 9.29959 59.1115 9.42373 59.0794 9.92491C58.077 10.9916 56.3436 11.3273 55.4746 12.5274C54.4906 12.0124 56.0631 11.2997 56.0769 10.5226C57.539 10.7158 57.939 9.85134 58.4816 9.12027L58.477 9.12487ZM59.4794 9.12487H60.0817V10.1272C59.2724 10.3525 59.0931 9.5111 59.4794 9.12487ZM116.154 13.1297C117.984 12.5504 119.078 13.7182 120.159 13.9297C120.186 14.4217 120.191 14.8953 119.957 15.1298C118.453 14.9551 117.892 15.0654 116.352 14.9275C115.138 14.0677 114.453 13.6079 112.747 13.5251C112.954 12.7205 112.434 12.6377 112.145 12.3251C112.678 10.1088 115.51 12.3296 116.149 13.1251L116.154 13.1297ZM33.2433 15.7322C30.9811 14.6654 28.935 15.2034 27.2338 13.5297C28.5902 12.1503 30.8616 14.4033 32.8433 14.3298C33.0456 14.7528 33.7307 15.2218 33.2433 15.7322ZM133.58 13.732C133.516 15.6356 131.419 14.4493 130.978 15.7368C129.382 15.0563 126.899 17.1943 126.173 15.1344C126.224 14.5183 126.605 14.2332 126.775 13.732C130.113 14.0171 130.969 13.0469 133.585 13.732H133.58ZM83.913 13.732C85.4993 14.0723 87.6006 13.3274 88.1202 14.3344C88.865 14.4125 88.6443 13.5205 89.5225 13.732C89.757 14.4769 91.0445 15.0011 90.1249 15.7368C89.449 15.8149 89.2697 15.3919 88.9248 15.1344C87.9592 16.2517 86.4097 14.8953 85.32 15.7368C84.5705 15.5528 84.2671 14.9183 83.5176 14.7344C83.7199 14.4723 83.7153 13.9941 83.9176 13.732H83.913ZM161.614 14.3298C161.922 14.6194 161.789 15.3551 161.816 15.9299C159.752 16.3621 158.685 17.2357 156.409 16.9322C156.828 15.3505 158.819 15.3367 160.414 14.9275C160.299 14.2102 161.007 14.3206 161.614 14.3252V14.3298ZM3.20477 15.1298C3.3749 15.3643 3.46686 15.6678 3.40709 16.1322C5.22788 15.8103 5.23247 16.992 5.6095 18.5369C4.54737 17.8564 2.33577 17.507 1.20467 17.5346C-0.133344 17.2265 0.0459764 15.116 1.00235 14.5321C1.8162 14.6562 2.17943 15.2218 3.20477 15.1344V15.1298ZM76.3033 14.9321C76.593 16.1322 75.393 16.9 74.901 16.1322C74.4458 16.477 73.8894 16.7207 73.4986 17.1345C71.5399 17.1115 70.6801 18.1875 69.0938 18.5369C69.457 16.6977 71.264 16.3023 73.3008 16.1322C73.7607 16.1919 73.5216 15.5528 73.9032 15.5298C74.3584 15.4747 74.6573 15.5758 74.7033 15.9299C75.1814 15.539 75.2504 14.739 76.3033 14.9275V14.9321ZM43.2577 15.7322C43.2853 16.0908 43.014 16.1552 43.0554 16.5322C42.5266 16.5322 41.8783 16.6426 41.8553 16.1322C41.6668 15.3183 42.9405 15.4379 43.2577 15.7322ZM106.342 21.9394C106.314 22.6475 105.767 22.836 105.74 23.5395C104.448 22.9648 103.008 22.5326 102.337 21.3371H101.537C100.719 20.0864 98.7966 19.9393 97.5322 19.1347C97.3115 17.9116 99.0219 18.6197 98.9346 17.5346C99.776 17.4288 100.052 17.884 100.737 17.9346V18.5369C102.618 19.6588 104.94 20.3439 106.346 21.9394H106.342ZM13.8215 20.3393C16.1619 20.2703 16.5665 22.1325 18.6264 22.344C18.9942 23.2452 20.2909 23.2176 20.2265 24.5465C19.1 24.5419 18.6264 23.8752 18.2217 23.1441C17.6562 22.9786 17.7022 23.4246 17.2194 23.3464C17.132 22.9648 16.7872 22.8452 16.8194 22.344C15.5641 22.6199 14.01 21.7647 13.8169 20.3393H13.8215ZM148.197 21.1394H147.397C147.241 20.3669 148.358 20.3669 148.197 21.1394ZM147.397 21.5394C147.131 22.2061 146.225 22.2383 145.995 22.9418C144.009 22.6521 143.631 24.9465 142.188 24.5419C141.912 24.7994 142.064 25.489 141.788 25.7419H140.188C140.349 23.3004 143.484 23.8338 144.395 22.1371C145.857 22.4774 146.22 20.8313 147.397 21.5348V21.5394ZM59.4794 23.5441C59.0885 25.089 57.5068 25.4477 56.0769 25.9489C55.5251 24.6154 57.7735 24.4775 58.2793 23.5441H59.4794ZM115.152 26.3489C116.471 25.9029 117.166 27.08 118.756 26.9512V27.7512C119.414 27.7421 119.524 27.1811 120.357 27.3512C121.005 27.9536 121.235 29.4801 120.154 29.756C118.793 29.1398 117.51 29.687 116.752 28.5559C115.083 29.1444 115.014 27.5351 113.147 28.1559C112.434 27.8386 111.873 27.48 111.745 26.9558C111.133 24.4499 114.476 24.3028 115.147 26.3535L115.152 26.3489ZM34.448 29.5491V30.5514C31.8593 31.2457 30.6363 29.2732 28.0384 29.3513C27.7672 28.6203 27.0269 28.3628 26.8384 27.5489C28.7879 26.896 30.0523 28.395 32.2456 28.5513C32.2364 29.8847 34.002 29.1306 34.448 29.5537V29.5491ZM91.3203 29.3513C90.9709 30.1468 91.564 30.6526 91.118 31.3561C88.0006 30.8641 86.7499 31.0526 83.7061 30.7537C84.0049 29.1444 85.5867 27.9582 87.3109 27.949C88.6305 27.949 90.4053 28.772 91.3157 29.3513H91.3203ZM133.98 28.349C134.219 29.7238 132.72 29.3559 132.178 29.9491C130.1 29.7192 129.35 30.4733 127.373 30.7491C127.368 30.556 127.129 30.5928 126.973 30.5468C125.828 26.5742 132.192 28.2202 133.98 28.3444V28.349ZM6.00953 31.7561C4.73589 32.6297 3.30594 30.7307 1.00235 31.3561C0.754064 30.9376 0.418416 30.602 0 30.3537C0.262084 29.6824 0.0551712 28.5421 0.800043 28.349C1.42077 29.0341 2.34955 28.8778 3.6048 29.3513C3.71515 29.3927 3.92205 30.0318 4.20713 30.1514C4.7175 30.3721 4.65773 29.8847 5.00717 30.1514C5.43018 30.4778 6.01412 31.1538 6.00953 31.7515V31.7561ZM47.0648 29.5491C46.6234 30.3721 45.3176 30.3353 44.8624 31.1492C43.3589 30.6204 41.3404 32.3538 41.0553 30.1468C41.8875 29.4663 43.414 29.3789 44.2601 29.9445C45.2118 29.6962 46.1223 28.6571 47.0648 29.5445V29.5491ZM77.5034 29.149C77.3471 31.9722 73.848 30.2985 73.0986 32.3538C72.5514 32.501 72.694 31.9538 72.2985 31.9538C71.6456 32.4872 70.5743 33.4941 69.4938 32.9562C69.5443 32.2067 69.9765 31.8343 70.0961 31.1538C70.5099 31.2733 71.4111 30.9055 71.4985 31.3561C71.8433 31.0986 71.8985 30.556 72.2985 30.3537C73.0434 30.5008 73.9492 30.8273 73.8986 29.7514C74.717 29.9491 74.9424 29.9675 75.301 29.3513C76.3034 29.756 76.4091 29.1123 77.5034 29.149ZM162.419 29.5491C162.428 30.7583 161.734 31.2687 160.414 31.1492C159.435 32.1883 158.078 32.294 156.409 32.9516C156.322 32.7722 156.234 32.5929 156.009 32.5515C156.097 30.2388 159.297 31.0342 160.014 29.3467C160.561 29.1996 160.419 29.7468 160.814 29.7468C161.306 29.2456 161.784 28.9835 162.414 29.5445L162.419 29.5491ZM105.942 38.1611C104.475 37.7564 103.041 37.3242 102.337 36.1563C100.066 36.5012 99.3254 34.4459 97.7299 34.754C97.2747 33.9401 96.5896 33.3608 96.7276 31.9492C97.4862 30.5606 98.9943 31.5538 99.5323 32.5515C100.015 32.6343 99.9691 32.1837 100.535 32.3492C101.785 34.6114 107.436 34.4689 105.942 38.1565V38.1611ZM17.8263 35.7609C19.1046 35.6828 19.7483 36.2391 19.6287 37.5633C17.8079 38.23 17.109 35.2414 15.4216 35.7609C15.371 35.0115 14.4284 35.154 14.2215 34.5608C13.564 34.57 13.4536 35.131 12.6214 34.9609V33.3608C14.2629 32.2067 14.7457 34.9057 17.0263 34.3631C17.0309 35.0942 18.07 34.7908 17.8263 35.7655V35.7609ZM149.2 35.5586C149.025 36.584 148.335 37.0989 147.195 37.1587C147.154 35.9954 148.432 35.2689 149.2 35.5586ZM62.6842 36.1609C62.3439 37.4208 61.0611 37.7427 59.8794 38.1657C58.4126 39.4485 56.5873 41.398 54.2699 41.1681C54.7941 38.4875 58.4954 38.9887 59.6771 36.961C59.9989 36.9058 60.0219 37.1495 60.2794 37.1633C60.5783 36.9932 60.7116 36.6575 60.6794 36.1609C61.5622 36.3725 62.229 35.7655 62.6842 36.1609ZM147.195 37.5633C146.312 38.7496 143.93 38.4369 143.59 40.1658C142.744 40.3221 141.935 40.5152 141.585 41.1681C139.93 40.0049 141.788 38.0231 143.788 38.1657C144.468 37.9128 144.937 37.4438 145.19 36.7633C146.216 36.6759 146.399 37.4208 147.195 37.5633ZM119.961 41.7659C120.485 42.6165 120.963 43.1453 120.361 44.3683C117.014 43.6419 113.46 43.1223 111.551 40.9658C112.627 38.0691 116.388 40.598 117.561 41.7659H119.966H119.961ZM34.6457 43.3706C35.1515 43.7614 34.5354 44.7132 34.4434 45.173C31.3536 45.0856 29.7167 42.7177 27.2338 43.1683C26.8246 42.5107 26.0705 42.1935 26.0337 41.1635C26.4797 40.8049 26.8476 40.3773 27.8361 40.5612C29.4362 42.0326 33.2157 42.3912 34.6457 43.366V43.3706ZM134.983 42.5705C134.955 43.343 134.169 43.3614 133.98 43.9729C131.199 44.0603 129.281 45.0121 126.371 44.9753C126.012 44.3362 125.984 43.9637 126.168 43.1729C127.865 41.9912 130.619 42.405 133.176 42.5705C133.732 41.6095 134.371 41.7521 134.978 42.5705H134.983ZM163.017 41.9682C163.256 43.6786 162.258 44.143 161.614 44.9707C159.311 44.8695 158.492 46.2581 156.809 46.7731C156.837 46.4144 156.566 46.3501 156.607 45.973C156.253 46.1523 156.349 46.7869 155.605 46.5754C155.329 44.212 158.101 43.2096 160.612 42.9705C161.255 42.4602 161.913 41.4164 163.017 41.9682ZM83.3107 42.3682C87.0212 42.4142 89.3938 42.7636 91.9226 43.5683C92.2031 44.3959 91.8123 45.7109 91.1226 46.1707C88.2811 44.3821 85.3982 46.3409 83.113 44.5706C83.1773 43.835 82.9428 42.7958 83.3153 42.3682H83.3107ZM47.2625 43.9683C46.251 45.1408 44.7658 44.9063 43.0554 45.5684C42.1496 45.4029 41.4093 45.081 40.6507 44.7684V43.766C43.1336 43.6373 45.8694 41.9728 47.258 43.9683H47.2625ZM76.5011 43.1683C77.039 43.8304 77.3977 44.6764 77.7011 45.573C77.3287 45.9638 76.9655 45.6328 76.5011 45.573C75.7838 46.0558 74.6067 46.0834 74.0964 46.7731C72.0548 46.2903 71.3605 48.8284 69.0891 48.7778C67.9626 47.4674 69.3696 45.8995 70.2892 45.3753C70.6984 45.7845 71.4939 45.5638 71.4893 44.9753C71.7514 45.0442 71.8065 45.3293 72.0916 45.3753C72.7169 44.5293 74.1239 44.4695 74.8964 43.7752C75.5171 43.5131 75.4665 43.8304 76.2987 43.7752C76.2436 43.4533 76.4873 43.4303 76.5011 43.1729V43.1683ZM5.20948 43.7706C5.10373 44.8787 6.47392 44.5063 6.21184 45.7753C5.8486 46.5432 5.4072 45.688 4.80946 45.573C3.50824 45.3293 1.92195 45.688 1.20467 44.773V43.7706C2.34037 43.2326 3.94504 43.789 5.20948 43.7706ZM106.944 52.3826C106.549 52.6539 105.799 52.5757 105.344 52.7826C104.388 51.5366 102.512 51.2055 101.537 49.9779C98.9254 50.2537 98.3506 48.4927 97.5322 46.9754C98.1115 46.8236 98.0517 46.0282 98.9346 46.1753C101.284 47.7616 103.877 48.7686 106.144 49.9825C106.365 50.8331 107.022 51.2423 106.944 52.3872V52.3826ZM13.6192 47.9777H15.4216V48.5801C16.8148 48.787 17.8493 49.3571 18.4241 50.3825C19.3115 50.3641 19.7989 50.7411 19.6241 51.7849H17.8217C17.4769 50.4607 16.1389 50.1296 14.6169 49.9825C14.6491 48.9479 13.541 49.0583 13.6146 47.9777H13.6192ZM148 49.9779C147.944 50.4331 148.046 50.7319 148.4 50.7779C148.694 49.8813 147.811 50.1618 148 49.3755C148.464 48.9709 149.535 49.1732 149.802 49.5778C149.728 50.1756 149.485 50.594 149.2 50.9802H148C145.94 52.7275 143.406 53.9965 140.992 55.3851C140.611 55.2977 140.491 54.9529 139.99 54.9851C139.751 53.8126 140.615 53.739 140.79 52.9803C143.535 52.3228 145.107 50.4928 148 49.9779ZM63.0842 50.1802C63.8474 53.8264 59.0747 53.6378 57.6769 55.7897C56.4079 55.7897 56.3712 57.0219 55.0745 56.9898C55.1067 55.9552 54.9504 54.7276 55.2768 53.9873C56.9689 53.6792 57.7827 52.4884 59.484 52.1849C60.4679 51.2975 61.291 50.2537 63.0888 50.1802H63.0842ZM113.552 53.785C115.795 55.192 118.278 56.3323 120.761 56.9898C120.706 57.6703 120.917 58.6129 120.559 58.9945C118.048 58.1347 115.851 57.1369 113.552 56.7921C112.986 56.4886 113.115 55.4954 112.549 55.192C112.655 54.4977 113.22 54.2632 113.552 53.7896V53.785ZM29.0408 55.5874C31.0087 55.0816 34.0664 56.3644 35.6481 56.9898C35.6067 57.6151 35.7814 58.4611 35.4458 58.7922C33.3445 59.2428 33.0732 57.6565 31.4409 58.1898C31.3582 57.8036 30.6639 58.0335 30.8386 57.3898C28.5764 57.2473 26.7878 56.6311 25.6337 55.3851C25.8222 53.362 28.7833 53.9137 29.0362 55.5874H29.0408ZM163.219 55.5874C163.292 56.2633 162.869 56.4426 162.616 56.7875C162.994 57.2519 163.444 57.6381 163.017 58.3876C159.83 58.783 158.934 61.459 155.407 60.99C155.411 57.9829 158.529 57.0495 160.814 56.9852C161.21 56.1116 162.267 55.9 163.219 55.5828V55.5874ZM48.2649 56.1851C48.081 57.1047 48.7661 57.1507 48.6649 57.9875C47.3545 58.5991 46.0487 58.9117 44.8578 58.7876C44.0256 59.9876 42.591 59.3485 41.4553 58.9899C41.2852 58.1531 41.8461 58.0427 41.8553 57.3898C43.3083 57.3944 44.5176 57.468 45.6625 56.7875C45.9981 57.0541 46.0901 57.5645 46.8625 57.3898C47.3821 57.0404 47.2304 56.0242 48.2649 56.1897V56.1851ZM91.725 58.1898C91.8031 58.9393 92.3181 60.006 91.9272 60.5946C91.1824 60.8061 91.279 60.1716 90.9249 59.9923C90.4283 59.9601 90.3042 60.3049 89.9225 60.3923C87.5362 59.4037 84.9752 60.2083 83.113 59.5922C83.1773 58.8565 82.9428 57.8174 83.3153 57.3898C83.6371 56.9116 85.0809 57.5507 85.1177 56.7875C87.5684 57.7622 89.7386 56.884 91.725 58.1898ZM77.7057 59.9923C77.6184 60.5716 76.8459 60.4658 76.7034 60.9946C74.363 60.3739 73.3606 62.1257 71.6962 61.997C71.1536 62.3234 70.7444 62.7786 70.4961 63.3993C70.0271 62.9257 69.5121 63.4315 68.896 63.3993C68.8362 62.9901 68.3535 63.0085 68.2937 62.5993C68.3351 60.9026 70.4869 60.2589 71.4985 60.1945C71.7974 60.0244 71.7882 59.5508 71.8985 59.1922C74.1975 59.4221 74.8964 58.0519 76.9057 57.9921C77.6966 58.5347 77.485 59.183 77.7057 59.9968V59.9923ZM5.80721 59.9923C4.26689 60.8889 2.46451 60.052 0.800043 59.7899C0.583938 58.7738 1.16788 58.5577 1.60009 58.1898C3.21857 58.9669 5.08073 58.291 5.80721 59.9923ZM98.3323 60.3923C99.5921 60.8015 100.544 61.5188 101.137 62.5947C103.804 62.5993 104.31 64.7649 106.747 64.9994C107.004 65.6064 107.547 65.9328 107.349 67.0042C105.703 67.1513 105.261 65.3489 103.946 65.8041C103.827 65.3857 103.523 65.1558 103.344 64.8017C101.482 64.7971 100.677 62.8844 98.9392 63.3993C98.277 62.9395 97.7897 61.4222 98.3369 60.3969L98.3323 60.3923ZM13.2192 62.1947H13.6192C14.2491 62.0981 14.4376 62.443 14.6215 62.797C15.6745 62.8384 16.686 63.335 17.4263 63.7994C18.0148 64.1672 19.1873 64.7603 19.0264 65.8041C17.8401 65.5236 16.7366 65.1604 16.2216 64.204C14.6767 64.4799 14.3595 63.5281 13.2192 63.4039V62.2039V62.1947ZM150 64.9994C148.51 65.4454 147.301 66.1719 146.597 67.4042C145.54 67.2846 145.011 67.6847 144.795 68.4065C144.436 68.4341 144.372 68.1628 143.995 68.2042C143.287 69.9331 140.197 70.3929 141.19 67.4042C142.068 67.5467 142.556 67.2984 142.79 66.8018C145.232 66.6409 146.344 65.1466 148.197 64.3971C148.542 64.1396 148.602 63.5971 148.997 63.3947C149.981 63.2798 150.073 64.0522 150 64.9948V64.9994ZM63.4842 65.1971C63.567 65.6799 63.1164 65.634 63.2819 66.1995C60.5737 67.5651 57.4057 68.4709 55.47 70.6044C54.6377 70.3699 54.463 69.4733 53.8698 69.0043C54.2514 68.4525 54.6883 67.9559 55.0699 67.4042C56.2884 67.0869 57.3137 66.5765 58.2747 66.0018C60.5001 66.1581 60.753 64.3419 62.8819 64.4017C62.9417 64.8109 63.4244 64.7925 63.4842 65.2018V65.1971ZM32.2456 70.4067C33.8181 69.6388 34.1169 71.6527 35.8504 70.8067V72.0067C35.0687 72.2274 34.3055 72.4619 33.4457 72.6091C33.2158 71.7768 33.8687 71.8274 33.8457 71.2067C33.3859 71.5424 30.6731 71.7539 29.8408 70.8067C29.5006 70.7331 29.4638 70.963 29.4408 71.2067C28.3189 70.7929 27.5648 70.0158 26.4383 69.6066C26.5027 69.1376 26.6774 68.779 26.8384 68.4065C28.6868 69.1284 31.1099 68.6732 32.2456 70.4112V70.4067ZM120.963 71.0044C121.193 71.7217 121.653 72.9126 120.963 73.4091C118.733 72.7424 116.926 72.3746 115.354 71.4044C114.439 72.2872 113.519 71.0504 112.949 70.4021C113.11 68.1215 116.54 69.717 117.156 70.6044C118.522 69.9928 119.478 71.1101 120.963 71.0044ZM163.619 69.4043C162.929 70.4342 164.134 70.6687 163.619 72.2091C161.007 72.8666 158.846 73.9793 157.209 75.6116C156.726 75.2299 155.949 75.138 155.609 74.6092C156.418 72.2137 159.292 71.8826 161.416 70.8021C161.77 70.7561 161.872 70.4572 161.816 70.002C162.63 70.0158 162.782 69.3675 163.619 69.3997V69.4043ZM48.0626 70.4067C48.1684 71.1699 48.6466 71.5561 48.8627 72.2091C48.4351 73.5379 46.5223 72.2321 46.0579 73.6115C44.7475 72.8252 44.4072 74.2092 42.4531 73.8138C42.3197 73.2804 41.8507 73.0827 41.4507 72.8114C41.6162 71.5745 42.5174 71.0734 43.4554 70.609C44.7612 71.5056 46.0303 69.9974 48.0626 70.4067ZM132.578 70.4067C133.479 71.1239 133.645 70.2503 134.983 70.4067C135.3 70.894 135.728 71.2619 135.585 72.2091C134.799 72.8252 133.484 73.285 132.183 72.8114C130.799 73.6068 129.341 73.308 127.778 73.8138C127.612 73.3126 127.074 73.1792 126.775 72.8114C126.55 69.2756 132.045 72.5493 132.583 70.4067H132.578ZM91.3203 72.2091C91.2744 72.8528 91.6744 73.0551 91.5226 73.8092C89.78 74.7058 86.3315 73.1333 84.9153 74.0115C83.9406 73.4827 83.6095 71.8228 84.5153 71.009C85.4901 71.5699 87.2603 71.3354 87.9178 72.2091C89.0167 71.7677 90.2536 71.786 91.3203 72.2091ZM1.20467 71.809C2.73579 72.278 4.92901 72.0895 4.80946 74.2138C3.90826 74.738 2.33117 74.6598 1.20467 74.6138C1.64607 73.193 1.77941 73.2022 1.20467 71.809ZM77.5034 72.2091C77.5034 73.0091 77.9034 73.4091 77.9034 74.2138C76.4827 74.7288 75.2458 75.4276 73.2962 75.4138C72.0732 76.5266 70.326 77.1151 68.8914 78.0163C68.8178 77.2852 68.4868 76.8208 68.2891 76.2139C68.8455 76.1036 68.8501 75.4414 69.0891 75.0138C69.9444 74.7333 71.0939 74.7517 71.4939 74.0115C73.6917 74.4253 74.5423 72.0803 77.5034 72.2091ZM5.20948 73.2114H5.81182C5.77043 73.8367 5.94516 74.6828 5.6095 75.0138C4.86463 74.8851 4.93361 73.823 5.20948 73.2114ZM97.7299 74.4115C100.033 74.1034 100.475 76.5266 102.337 76.0116C103.482 77.3404 105.335 77.9519 106.944 78.8163C107.087 79.8969 106.724 80.467 106.144 80.8211C103.615 78.9451 99.9875 78.1634 97.5322 76.2139C97.5736 75.5886 97.3988 74.7425 97.7345 74.4115H97.7299ZM13.0169 75.6116H13.8169C13.9273 76.3012 14.5342 76.499 14.4192 77.414C13.7387 77.0277 12.7594 76.9358 13.0169 75.6116ZM15.0216 76.4116C16.0377 76.3288 16.2308 77.0737 16.6217 77.6117C17.4631 77.7036 18.2309 77.8738 18.4241 78.614C19.4402 78.4623 19.9598 78.8118 20.2265 79.4141C20.1391 79.9934 19.8035 80.3291 19.2241 80.4164C17.8171 79.1612 16.9343 78.3428 14.6169 77.814C14.594 77.1933 15.2469 77.2438 15.017 76.4116H15.0216ZM149.802 79.4187C149.374 81.2763 146.919 81.8878 145.797 82.4212C144.809 83.4879 142.822 84.4443 141.19 84.2236V82.2189C141.737 81.7637 142.799 81.828 142.992 81.0188C144.868 81.5843 145.126 79.6026 146.395 80.2187C146.96 79.3083 148.951 77.6669 149.797 79.4187H149.802ZM63.2865 80.2187C62.514 82.1177 59.6311 81.9062 58.6793 83.6212C58.0724 83.612 57.3597 83.5063 57.4793 84.2236C56.4493 84.0626 55.9068 84.3845 55.4746 84.8259C54.532 84.596 54.1273 83.8143 54.4722 82.8212C56.8769 81.4188 59.5116 80.2509 62.0818 79.0141C62.8221 79.0738 62.8313 79.8647 63.2819 80.2141L63.2865 80.2187ZM121.961 86.026C121.961 86.7617 121.258 86.7938 120.959 87.226C119.846 86.803 118.343 86.7708 117.754 85.8237C116.513 86.5134 115.501 84.5041 114.549 85.4236C113.85 84.7202 112.83 84.3385 112.347 83.4189C112.407 81.6533 113.51 81.6487 114.949 81.6165C115.759 82.9453 117.593 83.2442 118.756 84.219H120.357C121.198 84.5132 121.736 85.1064 121.957 86.0214L121.961 86.026ZM35.6481 86.6283C35.4825 87.5341 35.0641 88.1824 34.448 88.633C32.6548 88.6238 32.2088 87.2674 30.2409 87.433C28.9488 86.0582 27.0085 85.3271 25.2337 84.4305C25.3992 83.5339 25.2751 82.5269 26.6361 82.4258C29.0914 83.9891 32.0663 85.157 34.848 85.4282C35.0963 85.8512 35.4044 86.2099 35.6481 86.6283ZM134.983 87.226C132.302 87.2168 130.73 88.3112 127.773 88.0261C127.437 87.364 126.987 86.426 127.373 85.6214C129.75 84.6972 132.33 85.2213 134.583 84.219C136.063 84.3983 136.013 86.5961 134.983 87.2214V87.226ZM40.6553 88.4307C40.7196 87.695 40.4851 86.6559 40.8576 86.2283C43.6164 86.1087 45.8418 85.6719 48.2695 84.8259C48.3799 85.1156 48.5821 85.3133 48.8718 85.4282C48.7385 86.403 49.2259 86.757 48.8718 87.433C47.3591 88.7986 44.1589 88.3479 42.6646 89.2354C42.1726 88.7939 41.3128 88.7204 40.6599 88.4353L40.6553 88.4307ZM99.3346 4.91771C101.224 4.13146 101.767 6.3339 103.542 6.3201C103.772 6.89485 104.089 7.37764 104.342 7.9202C103.146 7.37764 101.647 7.14314 101.137 5.91548C100.222 5.89249 99.3254 5.86031 99.3346 4.91312V4.91771ZM162.419 1.51521C160.814 3.40498 157.481 3.12451 156.009 4.72C155.195 4.7292 154.809 4.31998 154.409 3.91996C154.634 0.742759 159.058 1.75891 161.219 0.517461C161.945 0.526657 161.862 1.3405 162.419 1.51982V1.51521ZM133.176 56.3874C133.585 56.2771 133.654 56.7691 133.378 56.7875C133.792 57.307 134.679 57.3576 134.38 58.5899C132.757 59.0129 130.812 59.5646 129.575 58.9899C128.913 60.0658 127.502 59.6842 126.573 59.1922C126.642 58.4703 126.881 58.2266 126.573 57.5921C127.851 57.3622 130.523 56.5576 131.378 57.7944C131.493 56.8426 132.606 56.8886 133.18 56.392L133.176 56.3874ZM84.1107 0.310547C84.4647 0.489868 84.6211 0.871497 85.3108 0.710568C85.4993 1.97961 84.1935 1.35888 83.7107 1.11059C83.5635 0.563431 84.1107 0.705973 84.1107 0.310547Z" fill="#F05024"/>
</svg>
