<svg width="158" height="158" viewBox="0 0 158 158" fill="none" xmlns="http://www.w3.org/2000/svg">
<path d="M75.9201 1.4078C77.7296 -0.00702643 80.2702 -0.00702763 82.0797 1.4078L85.4954 4.07855C86.9568 5.22117 88.9306 5.46084 90.6229 4.70114L94.5785 2.92543C96.674 1.98475 99.1409 2.59277 100.559 4.39952L103.236 7.81011C104.382 9.26925 106.241 9.97432 108.066 9.64169L112.332 8.86423C114.591 8.45236 116.841 9.63307 117.786 11.7267L119.569 15.6789C120.332 17.3698 121.968 18.4993 123.82 18.6131L128.148 18.879C130.44 19.0199 132.342 20.7047 132.758 22.9636L133.544 27.2278C133.88 29.0521 135.198 30.5403 136.969 31.0939L141.107 32.3878C143.3 33.0733 144.743 35.1642 144.606 37.4571L144.349 41.7853C144.238 43.6371 145.162 45.3977 146.749 46.3589L150.457 48.6056C152.422 49.7957 153.323 52.1713 152.642 54.3649L151.356 58.5057C150.806 60.2773 151.281 62.2078 152.592 63.5208L155.655 66.5897C157.277 68.2154 157.584 70.7376 156.397 72.7044L154.158 76.4171C153.2 78.0055 153.2 79.9939 154.158 81.5823L156.397 85.295C157.584 87.2618 157.277 89.784 155.655 91.4097L152.592 94.4786C151.281 95.7916 150.806 97.7221 151.356 99.4937L152.642 103.634C153.323 105.828 152.422 108.204 150.457 109.394L146.749 111.641C145.162 112.602 144.238 114.362 144.349 116.214L144.606 120.542C144.743 122.835 143.3 124.926 141.107 125.612L136.969 126.905C135.198 127.459 133.88 128.947 133.544 130.772L132.758 135.036C132.342 137.295 130.44 138.979 128.148 139.12L123.82 139.386C121.968 139.5 120.332 140.63 119.569 142.32L117.786 146.273C116.841 148.366 114.591 149.547 112.332 149.135L108.066 148.358C106.241 148.025 104.382 148.73 103.236 150.189L100.559 153.6C99.1409 155.407 96.674 156.015 94.5785 155.074L90.6229 153.298C88.9306 152.539 86.9568 152.778 85.4954 153.921L82.0797 156.592C80.2702 158.006 77.7296 158.006 75.9201 156.592L72.5044 153.921C71.043 152.778 69.0692 152.539 67.3769 153.298L63.4213 155.074C61.3258 156.015 58.8589 155.407 57.4406 153.6L54.7633 150.189C53.6179 148.73 51.7588 148.025 49.9338 148.358L45.6682 149.135C43.4085 149.547 41.1588 148.366 40.2141 146.273L38.4308 142.32C37.6678 140.63 36.0315 139.5 34.18 139.386L29.8522 139.12C27.5596 138.979 25.6579 137.295 25.2417 135.036L24.456 130.772C24.1199 128.947 22.8014 127.459 21.0309 126.905L16.8926 125.612C14.7003 124.926 13.257 122.835 13.3935 120.542L13.6511 116.214C13.7613 114.362 12.8373 112.602 11.2508 111.641L7.54233 109.394C5.5778 108.204 4.67686 105.828 5.3581 103.634L6.64406 99.4937C7.19424 97.7221 6.7184 95.7916 5.40796 94.4786L2.34497 91.4097C0.722346 89.784 0.416101 87.2618 1.60251 85.295L3.84206 81.5823C4.80021 79.9939 4.80021 78.0055 3.84207 76.4171L1.60251 72.7044C0.416102 70.7376 0.722345 68.2154 2.34497 66.5897L5.40796 63.5208C6.7184 62.2078 7.19424 60.2773 6.64406 58.5057L5.3581 54.3649C4.67686 52.1713 5.5778 49.7957 7.54233 48.6056L11.2508 46.3589C12.8373 45.3977 13.7613 43.6371 13.6511 41.7854L13.3935 37.4571C13.257 35.1642 14.7003 33.0733 16.8926 32.3878L21.0309 31.0939C22.8014 30.5403 24.1199 29.0521 24.456 27.2277L25.2417 22.9636C25.6579 20.7047 27.5596 19.0199 29.8522 18.879L34.18 18.6131C36.0315 18.4993 37.6679 17.3698 38.4308 15.6789L40.2141 11.7267C41.1588 9.63307 43.4085 8.45236 45.6682 8.86423L49.9338 9.64169C51.7588 9.97431 53.6179 9.26925 54.7633 7.81011L57.4406 4.39952C58.8589 2.59278 61.3258 1.98475 63.4213 2.92543L67.3769 4.70114C69.0692 5.46084 71.043 5.22117 72.5044 4.07855L75.9201 1.4078Z" fill="#F39121"/>
<path d="M28.357 78.5831L27.4038 77.0045C29.154 76.3645 30.3097 74.9486 30.5438 73.1784C30.778 71.4082 30.0837 69.9219 28.5229 69.7155C26.867 69.4964 26.3725 71.0385 25.6031 73.0477C24.8047 75.1306 23.9326 77.1844 21.363 76.8445C18.9647 76.5272 17.6783 74.246 18.0208 71.6574C18.3355 69.2781 19.7042 67.7161 21.3542 67.1016L22.2744 68.6371C20.8679 69.1676 19.8297 70.1342 19.5956 71.9044C19.3765 73.5604 20.1315 74.8804 21.4449 75.0541C22.8915 75.2455 23.3647 74.0105 24.0759 72.1485C24.9084 69.9539 25.7142 67.5234 28.6073 67.9061C31.1579 68.2435 32.4762 70.7226 32.1186 73.4255C31.8064 75.7857 30.3267 77.8947 28.357 78.5831Z" fill="white"/>
<path d="M25.9289 51.2723L24.1556 55.5878L35.4148 60.2145L34.7143 61.9193L23.455 57.2927L21.6817 61.6081L20.1899 60.9951L24.4372 50.6593L25.9289 51.2723Z" fill="white"/>
<path d="M30.1131 42.396L31.3798 40.803L45.48 45.2205L44.3208 46.6782L40.6082 45.5167L36.7603 50.3556L38.7401 53.6962L37.5929 55.1389L30.1131 42.396ZM32.3456 42.9202L35.8803 48.8709L38.9635 44.9937L32.3456 42.9202Z" fill="white"/>
<path d="M47.9665 42.8168L40.2088 31.4211L44.4147 28.5579C46.8272 26.9157 48.8367 27.1039 50.1332 29.0084C51.1273 30.4686 50.7355 31.8038 50.0678 32.6996C51.5911 32.1736 53.1288 32.59 54.1121 34.0343C55.4626 36.0183 54.807 38.1601 52.5057 39.7267L47.9665 42.8168ZM45.0127 35.3047L47.6156 33.5328C49.1392 32.4955 49.5806 31.3357 48.7595 30.1294C47.9276 28.9073 46.6866 28.8927 45.1629 29.93L42.56 31.7019L45.0127 35.3047ZM45.8986 36.6062L48.5673 40.5264L51.567 38.4844C53.0907 37.4471 53.3758 36.0917 52.5763 34.9172C51.7875 33.7586 50.422 33.5269 48.8983 34.5641L45.8986 36.6062Z" fill="white"/>
<path d="M59.6756 35.3443L55.3056 22.2696L57.0538 21.6854L60.9125 33.2304L67.4316 31.0515L67.9429 32.5811L59.6756 35.3443Z" fill="white"/>
<path d="M70.5823 18.0922L79.5724 17.578L79.6645 19.1881L72.4955 19.5982L72.7378 23.8345L78.8142 23.4869L78.9063 25.0971L72.8299 25.4446L73.0985 30.141L80.2676 29.7309L80.3597 31.3411L71.3696 31.8553L70.5823 18.0922Z" fill="white"/>
<path d="M94.8861 24.9686C96.4463 25.4472 97.303 26.9753 96.7961 28.6273C96.3006 30.2426 94.7343 31.0273 93.1741 30.5487C91.6139 30.07 90.7388 28.5363 91.2344 26.921C91.7412 25.269 93.3258 24.4899 94.8861 24.9686Z" fill="white"/>
<path d="M104.689 35.106L106.532 35.0588C106.222 36.8965 106.881 38.6013 108.303 39.6808C109.725 40.7602 111.361 40.8924 112.312 39.6382C113.322 38.3076 112.227 37.1148 110.861 35.452C109.447 33.7275 108.093 31.9534 109.66 29.8886C111.123 27.9615 113.742 27.9725 115.822 29.5511C117.733 31.0019 118.414 32.9642 118.131 34.7021L116.341 34.7419C116.576 33.2571 116.25 31.8767 114.828 30.7973C113.497 29.7875 111.976 29.7904 111.176 30.8457C110.293 32.0081 111.132 33.0305 112.399 34.5698C113.894 36.3793 115.607 38.2821 113.843 40.6069C112.288 42.6564 109.481 42.5752 107.309 40.927C105.413 39.4878 104.312 37.1583 104.689 35.106Z" fill="white"/>
<path d="M129.624 46.4928L126.747 42.8193L117.163 50.3237L116.027 48.8725L125.611 41.368L122.735 37.6945L124.004 36.7003L130.893 45.4985L129.624 46.4928Z" fill="white"/>
<path d="M135.276 54.5354L136.033 56.4246L125.214 66.4891L124.522 64.7603L127.369 62.1095L125.069 56.3707L121.187 56.4373L120.501 54.7263L135.276 54.5354ZM133.715 56.2157L126.795 56.3411L128.637 60.9393L133.715 56.2157Z" fill="white"/>
<path d="M126.07 69.838L139.813 68.7538L140.213 73.826C140.442 76.7354 139.282 78.387 136.985 78.5682C135.224 78.7071 134.259 77.7047 133.813 76.6806C133.514 78.2642 132.39 79.3929 130.648 79.5304C128.255 79.7191 126.721 78.0875 126.502 75.3122L126.07 69.838ZM134.058 70.9989L134.305 74.138C134.45 75.9755 135.239 76.9341 136.693 76.8193C138.167 76.703 138.795 75.6327 138.65 73.7952L138.403 70.6562L134.058 70.9989ZM132.488 71.1228L127.761 71.4957L128.046 75.1133C128.191 76.9508 129.226 77.8706 130.643 77.7589C132.04 77.6486 132.919 76.5778 132.774 74.7403L132.488 71.1228Z" fill="white"/>
<path d="M126.755 83.7103L140.283 86.3635L139.928 88.1722L127.983 85.8294L126.66 92.5745L125.077 92.2641L126.755 83.7103Z" fill="white"/>
<path d="M136.375 101.711L132.384 109.783L130.938 109.068L134.121 102.631L130.317 100.75L127.62 106.206L126.174 105.492L128.871 100.036L124.655 97.9508L121.472 104.388L120.026 103.673L124.017 95.6009L136.375 101.711Z" fill="white"/>
<path d="M118.354 119.432C117.165 120.55 115.414 120.539 114.229 119.281C113.071 118.051 113.164 116.301 114.352 115.183C115.54 114.064 117.306 114.062 118.464 115.292C119.649 116.55 119.542 118.313 118.354 119.432Z" fill="white"/>
<path d="M104.708 122.951L103.837 124.577C102.393 123.398 100.586 123.126 98.9439 123.828C97.302 124.53 96.378 125.885 96.9968 127.333C97.6533 128.869 99.2318 128.508 101.352 128.144C103.551 127.768 105.762 127.47 106.781 129.853C107.732 132.078 106.426 134.348 104.025 135.375C101.819 136.318 99.7768 135.938 98.4064 134.832L99.2575 133.257C100.431 134.196 101.792 134.596 103.434 133.894C104.97 133.238 105.72 131.915 105.2 130.697C104.626 129.355 103.323 129.578 101.358 129.916C99.0461 130.32 96.5446 130.867 95.3976 128.184C94.3864 125.818 95.8459 123.419 98.3529 122.348C100.542 121.412 103.111 121.609 104.708 122.951Z" fill="white"/>
<path d="M82.4563 138.971L87.0728 138.295L85.3107 126.251L87.1345 125.984L88.8965 138.028L93.513 137.353L93.7465 138.949L82.6898 140.566L82.4563 138.971Z" fill="white"/>
<path d="M72.7094 139.911L70.6927 139.637L67.2773 125.261L69.1228 125.512L70.0235 129.296L76.1497 130.128L78.0077 126.718L79.8341 126.966L72.7094 139.911ZM72.0181 137.724L75.3239 131.643L70.4153 130.977L72.0181 137.724Z" fill="white"/>
<path d="M63.9429 124.35L58.0854 136.83L53.4795 134.668C50.8376 133.428 49.9764 131.602 50.9554 129.517C51.7059 127.918 53.0545 127.575 54.1655 127.693C52.9371 126.65 52.5125 125.115 53.2549 123.533C54.2747 121.361 56.4518 120.834 58.972 122.017L63.9429 124.35ZM58.9817 130.718L56.1312 129.38C54.4627 128.597 53.2397 128.807 52.6197 130.128C51.9915 131.466 52.6108 132.542 54.2793 133.325L57.1298 134.663L58.9817 130.718ZM59.6506 129.292L61.6657 124.999L58.3807 123.458C56.7122 122.674 55.4005 123.119 54.7968 124.405C54.2013 125.674 54.6971 126.967 56.3657 127.751L59.6506 129.292Z" fill="white"/>
<path d="M51.5494 118.081L42.5399 128.515L41.1448 127.31L49.1003 118.097L43.8978 113.605L44.9518 112.384L51.5494 118.081Z" fill="white"/>
<path d="M31.1555 117.53L26.112 110.071L27.4481 109.167L31.47 115.116L34.9852 112.74L31.5762 107.697L32.9123 106.794L36.3213 111.836L40.2182 109.202L36.1963 103.253L37.5324 102.349L42.5759 109.809L31.1555 117.53Z" fill="white"/>
<path d="M24.6243 93.2575C24.2134 91.678 25.065 90.1471 26.7374 89.7121C28.3726 89.2867 29.8622 90.2086 30.2731 91.788C30.684 93.3674 29.8372 94.9169 28.202 95.3423C26.5297 95.7773 25.0352 94.8369 24.6243 93.2575Z" fill="white"/>
<path d="M76.8663 88.3414C77.0899 88.5146 77.3549 88.6264 77.635 88.6658C77.9151 88.7052 78.2007 88.6707 78.4634 88.5659C78.9961 88.3516 91.5217 83.2219 93.2165 71.1631C93.5854 67.8044 92.6321 64.434 90.5586 61.7661C88.4851 59.0982 85.4543 57.3425 82.1085 56.8709C78.7626 56.3994 75.3647 57.249 72.6346 59.2399C69.9045 61.2308 68.0568 64.2064 67.483 67.5362C65.7868 79.6051 76.4208 87.9794 76.8663 88.3414ZM81.035 64.5179C81.9898 64.6521 82.8833 65.0664 83.6027 65.7084C84.322 66.3505 84.8348 67.1914 85.0762 68.1248C85.3176 69.0583 85.2768 70.0424 84.9589 70.9527C84.641 71.863 84.0604 72.6585 83.2903 73.2388C82.5203 73.8191 81.5955 74.1579 80.6329 74.2126C79.6702 74.2673 78.713 74.0353 77.8822 73.5459C77.0515 73.0565 76.3845 72.3318 75.9656 71.4634C75.5467 70.5949 75.3947 69.6218 75.5289 68.667C75.7089 67.3866 76.3901 66.2302 77.4226 65.4521C78.4552 64.674 79.7546 64.3379 81.035 64.5179ZM99.945 93.431C99.0636 99.7028 86.9798 101.455 76.0595 99.92C65.1392 98.3852 54.0064 93.3705 54.8879 87.0987C55.3003 84.1639 58.3247 81.9388 63.4048 80.8354C63.8192 80.7602 64.2467 80.8489 64.597 81.0827C64.9473 81.3166 65.1932 81.6773 65.2827 82.0889C65.3722 82.5005 65.2984 82.9308 65.0769 83.289C64.8553 83.6473 64.5033 83.9055 64.0951 84.0092C60.6014 84.7715 58.3064 86.1269 58.1062 87.551C57.7285 90.2383 64.5475 95.0201 76.5118 96.7016C88.4761 98.3831 96.349 95.6661 96.7267 92.9787C96.9268 91.5546 95.0943 89.6192 91.9458 87.9254C91.582 87.7132 91.3148 87.3679 91.2005 86.9625C91.0863 86.5571 91.134 86.1231 91.3335 85.7522C91.533 85.3812 91.8687 85.1022 92.27 84.974C92.6712 84.8457 93.1065 84.8783 93.4842 85.0648C98.0636 87.5237 100.357 90.4963 99.945 93.431Z" fill="white"/>
</svg>
