<svg xmlns="http://www.w3.org/2000/svg" width="400" height="250" fill="none"><path fill="#F79D31" d="M187.15 50.83v32.1c0 4.54-3.7 8.25-8.25 8.25h-62.1c-4.55 0-8.26-3.7-8.26-8.26v-32.1c0-2 .7-3.84 1.93-5.4 1.54-1.84 3.86-2.92 6.33-2.92h62.1c2.62 0 5.1 1.24 6.63 3.32 1.08 1.46 1.62 3.16 1.62 5z"/><path fill="#EA800B" d="M185.53 45.82l-29.85 23.76c-4.4 3.47-10.57 3.47-14.97 0l-30.23-24.15c1.54-1.85 3.86-2.93 6.33-2.93h62.1c2.62 0 5 1.24 6.63 3.32z"/><path stroke="#407FF3" stroke-width="1.4" stroke-miterlimit="10" d="M275.95 60.48h9.95"/><path fill="#407FF3" d="M310.74 51.68c-.23-.6-.85-1-1.54-.92-.54.07-1 .46-1.16.92h-1.85l-8.42-8.4h-21.9v1.07h21.44l8.4 8.4h2.24c.24.63.85 1.02 1.55.94.55-.1 1-.47 1.17-.94h.07v-1.08zM293.3 101.9c-.6 0-1.15.38-1.38.92h-16.05v1.08H292c.23.54.77.93 1.38.93.85 0 1.55-.7 1.55-1.47-.08-.77-.77-1.46-1.62-1.46.08 0 .08 0 0 0zM309.35 100.74c-.6 0-1.15.4-1.4.93h-4.92l-7.56-7.56h-19.52v1.1h19.13l7.56 7.55h5.4c.3.77 1.16 1.15 1.93.84.4-.16.7-.47.85-.85h.08v-1.08h-.08c-.3-.54-.85-.93-1.47-.93zM309.35 84c-.6 0-1.15.4-1.4.93h-32V86h32c.32.78 1.17 1.16 1.94.86.38-.16.7-.47.84-.85h.08v-1.07h-.08c-.23-.54-.77-.93-1.4-.93zM309.35 67.96c-.6 0-1.15.38-1.4 1h-14.72l-7.7 7.7h-9.66v1.1h10.03l7.72-7.72h14.34c.3.77 1.16 1.16 1.93.85.38-.17.7-.47.84-.86h.08v-1.08h-.08c-.15-.62-.77-1-1.4-1zM286.98 62.02c.85 0 1.54-.7 1.54-1.54 0-.86-.7-1.55-1.54-1.55-.85 0-1.54.7-1.54 1.55 0 .85.7 1.54 1.54 1.54zM309.35 58.93c-.6 0-1.15.4-1.4.93h-14.72l-7.7 7.7h-9.66v1.1h10.03l7.72-7.72h14.34c.3.77 1.16 1.16 1.93.85.38-.17.7-.48.84-.86h.08v-1.08h-.08c-.23-.54-.77-.93-1.4-.93zM299.25 53.6c.85 0 1.54-.68 1.54-1.46 0-.84-.7-1.54-1.48-1.54-.6 0-1.15.4-1.38.93h-21.9v1.08h21.9c.07.62.7 1 1.3 1z"/><path stroke="#E4AC37" stroke-width="1.5" stroke-miterlimit="10" d="M158.53 83.46l26.62 21.06"/><path fill="#48B6ED" d="M369.06 243.75H35.33V250h333.74v-6.25z"/><path fill="#388CE8" d="M223.1 122.34h-17.2v121.34h17.2V122.34z"/><path fill="#76CAFD" d="M267.77 38.1H160.7v74.83h107.07V38.1z"/><path fill="#48B6ED" d="M160.7 38.8v73.98h-8.26V38.8c0-1.85 1.47-3.32 3.32-3.32h1.62c.38 0 .77.08 1.15.24 1.3.46 2.1 1.7 2.16 3.08zM275.95 38.57v74.2h-8.25v-74.2c0-1.23.77-2.3 1.92-2.78.3-.16.7-.24 1.08-.24h2.16c1.62-.08 3 1.16 3.1 2.78 0 .08 0 .15 0 .23zM282.43 117.56c0 1.23-.7 2.47-1.85 3.32-1.16.92-2.78 1.38-4.4 1.38H152.75c-3.47 0-6.25-2.08-6.25-4.7 0-.85.23-1.54.77-2.3.3-.4.62-.86 1.08-1.17 1.16-.86 2.78-1.4 4.4-1.4h123.43c2.32 0 4.4.92 5.48 2.47.46.77.77 1.54.77 2.4z"/><path fill="#388CE8" d="M160.7 38.8v74.13h-2.17v-77.3c1.3.55 2.1 1.78 2.16 3.17zM269.86 35.64v77.2h-2.17V38.58c0-1.23.77-2.3 1.92-2.78h.24v-.16z"/><path fill="#D7F2FE" d="M267.62 38.1H160.7v10.2H267.6V38.1z"/><path fill="#F9D22F" d="M135.93 72.9v33.93c0 4.86-3.94 8.8-8.8 8.8H61.48c-4.86 0-8.7-4-8.7-8.8V72.9c0-2.1.68-4.1 2-5.7 1.6-2.02 4.08-3.1 6.63-3.1h65.66c4.86.15 8.72 4 8.87 8.8z"/><path fill="#F2AE17" d="M134.08 67.65L102.6 92.8c-4.63 3.62-11.18 3.62-15.8 0L54.76 67.26c1.62-2 4.1-3.08 6.64-3.08h65.66c2.78-.08 5.4 1.23 7.02 3.47z"/><path fill="#F79D31" d="M58.86 57.08v23.9c0 3.5-2.77 6.26-6.25 6.26H6.26C2.78 87.24 0 84.47 0 81V57.07c0-1.46.54-2.85 1.54-3.93C2.7 51.68 4.4 50.9 6.24 51h46.37c1.94 0 3.8.9 4.95 2.46.85 1 1.3 2.3 1.3 3.62z"/><path fill="#EA800B" d="M57.7 53.3L35.5 71.04c-3.25 2.55-7.88 2.55-11.2 0L1.62 53c1.16-1.4 2.93-2.17 4.7-2.17H52.7c2 .08 3.77.93 5 2.47z"/><path fill="#F9D22F" d="M101.2 33.48v20.6c0 3-2.38 5.4-5.4 5.4H55.86c-3 0-5.4-2.4-5.4-5.4v-20.6c0-1.24.46-2.47 1.3-3.47 1.02-1.23 2.48-1.92 4.1-1.92H95.8c1.7 0 3.25.77 4.33 2.16.7.92 1.08 2.08 1.08 3.24z"/><path fill="#F2AE17" d="M100.2 30.32L81 45.52c-2.78 2.23-6.8 2.23-9.56 0L51.92 29.9c1-1.22 2.47-1.92 4.1-1.92h39.95c1.7.16 3.24.93 4.24 2.32z"/><path fill="#2164DA" d="M395.9 14.2v151.5c0 6.16-5 11.18-11.17 11.18H326.1c-6.18 0-11.27-5.02-11.27-11.2V14.2c0-6.16 5.02-11.17 11.2-11.17h58.62c6.17-.07 11.2 4.87 11.26 10.96 0 .08 0 .16 0 .23z"/><path fill="#EAF2F3" d="M394.6 16.74V164.6c-.08 6.03-5 10.96-11.03 10.96h-56.4c-6.1 0-11.03-4.93-11.03-11.03V16.73c0-6.1 4.94-11.02 11.04-11.02h56.4c6.08 0 11.02 4.94 11.02 11.04z"/><path fill="#D9DDE4" d="M374.16 10.95h-37.42c-1.77 0-3.24-1.46-3.24-3.24V5.56c0-.23.23-.38.46-.46h42.74c.23 0 .4.22.47.45V7.7c.15 1.63-1.1 3.1-2.78 3.25-.1 0-.17 0-.24 0z"/><path fill="#A7C7FF" d="M385.5 0h-60.18c-8.02 0-14.5 6.48-14.5 14.5v150.88c0 8.02 6.48 14.5 14.5 14.5h60.18c8.02-.07 14.5-6.55 14.5-14.58V14.5C400 6.48 393.52 0 385.5 0zm9.8 164.53c0 6.1-4.94 11.03-11.04 11.03h-57.78c-6.1 0-11.03-4.93-11.03-11.03V15.27c0-6.1 4.94-11.03 11.03-11.1h57.7c6.1-.08 11.12 4.86 11.2 10.95v149.4h-.08zM374.23 10.95H336.5c-1.6 0-3-1.3-3-3V3.07c0-.15.08-.3.23-.3h43.14c.15 0 .3.07.3.23v4.94c0 1.62-1.3 2.93-2.93 3z"/><path fill="#28377B" d="M359.5 7.1h-8.33c-.47 0-.77-.3-.77-.78v-.15c0-.46.3-.77.77-.77h8.4c.47 0 .78.3.78.77v.08c0 .54-.4.85-.85.85zM364.67 7.56c.64 0 1.15-.6 1.15-1.3 0-.74-.5-1.32-1.15-1.32-.64 0-1.16.58-1.16 1.3 0 .73.53 1.32 1.17 1.32z"/><path fill="#231F20" d="M379.8 8.8c0 .92-.32 1.46-.94 1.46-.6 0-.92-.54-.92-1.4 0-.84.46-1.46.92-1.46.47 0 .93.47.93 1.4zm-1.48 0c0 .76.23 1.15.54 1.15.3 0 .54-.46.54-1.16s-.23-1.16-.54-1.16c-.3 0-.54.46-.54 1.15zM382.03 7.4v.23l-1.16 2.55h-.46l1.16-2.47h-1.4v-.3h1.87zM382.4 8.48c0-.07.1-.3.24-.3.16 0 .23.07.23.3 0 .16-.07.23-.23.23-.15 0-.23-.06-.23-.22zm0 1.55c0-.08.1-.3.24-.3.16 0 .23.06.23.3 0 .15-.07.23-.23.23-.15 0-.23-.16-.23-.23zM385.2 8.8c0 .92-.32 1.46-.94 1.46-.6 0-.92-.54-.92-1.4 0-.84.46-1.46.92-1.46.47 0 .93.47.93 1.4zm-1.55 0c0 .76.23 1.15.54 1.15.3 0 .53-.46.53-1.16s-.24-1.17-.54-1.17c-.32 0-.55.47-.55 1.16zM387.35 8.8c0 .92-.3 1.46-.93 1.46-.6 0-.92-.54-.92-1.4 0-.84.46-1.46.92-1.46.47 0 .93.47.93 1.4zm-1.54 0c0 .76.24 1.15.55 1.15.3 0 .54-.46.54-1.16s-.25-1.17-.55-1.17c-.3 0-.54.47-.54 1.16z"/><path fill="#28377B" d="M324.24 7.95h-.77v2.7h.77v-2.7zM325.4 7.48h-.77v3.24h.77V7.48zM326.63 7.1h-.77v3.62h.77V7.1z"/><path fill="#F1F4FA" stroke="#28387B" stroke-width=".25" stroke-miterlimit="10" d="M330.34 6.94l-.23.62-1.3 2.93-1.16-2.94-.16-.62c.85-.54 2-.54 2.86 0z"/><path fill="#28377B" stroke="#28377B" stroke-width=".25" stroke-miterlimit="10" d="M330.1 7.64l-1.3 2.93-1.16-2.93c.85-.3 1.7-.3 2.47 0z"/><path stroke="#A7C7FF" stroke-width=".5" stroke-miterlimit="10" d="M332.5 166.62H325v5.16h7.5v-5.16zM325 166.62l7.5 5.16M332.5 166.62l-7.5 5.16" stroke-linejoin="round"/><path stroke="#A7C7FF" stroke-width=".5" stroke-miterlimit="10" d="M350.32 166.62h-7.5v5.16h7.5v-5.16zM350.32 171.78l-7.5-5.16 3.64-2.78 3.86 2.78-3.86 2.46" stroke-linejoin="round"/><path stroke="#A7C7FF" stroke-width=".5" stroke-miterlimit="10" d="M364.05 172.56c2.26 0 4.1-1.83 4.1-4.1 0-2.25-1.84-4.08-4.1-4.08s-4.1 1.83-4.1 4.1c0 2.25 1.84 4.08 4.1 4.08zM364.05 165.6v2.56l-2.4 2.4" stroke-linejoin="round"/><path stroke="#A7C7FF" stroke-width=".5" stroke-miterlimit="10" d="M384.1 165.54h-6.32v6.86h6.33v-6.86zM377.78 165.54c0-3 6.33-3 6.33 0M379.48 172.32v-6.86c.15-.93.7-1.7 1.47-2.24.77.47 1.3 1.3 1.38 2.24v6.86" stroke-linejoin="round"/><path fill="#A7C7FF" d="M322.62 39.1h65.9c1.07 0 1.92 1 1.92 2.25v96.73c0 1.23-.85 2.23-1.93 2.23h-65.88c-1.08 0-1.93-1-1.93-2.22V41.35c0-1.24.92-2.24 1.92-2.24z"/><mask id="a" width="71" height="102" x="320" y="39" maskUnits="userSpaceOnUse"><path fill="#A7C7FF" d="M322.62 39.1h65.9c1.07 0 1.92 1 1.92 2.25v96.73c0 1.23-.85 2.23-1.93 2.23h-65.88c-1.08 0-1.93-1-1.93-2.22V41.35c0-1.24.92-2.24 1.92-2.24z"/></mask><g fill="#fff" mask="url(#a)"><path d="M392.83 48.06h-76.15v.46h76.15v-.46zM393.6 66.42h-76.15v.46h76.15v-.46zM394.6 84h-76.14v.47h76.14V84zM394.6 102.36h-76.14v.46h76.14v-.46zM343.92 38.48h-.47v9.62h.47v-9.62zM367.68 38.48h-.47v9.62h.48v-9.62zM393.44 120.95H317.3v.46h76.14v-.45z"/></g><path fill="#fff" d="M323.24 40.73h17.28c.46 0 .85.38.85.85v3.78c0 .46-.4.85-.85.85h-17.28c-.46 0-.85-.38-.85-.84v-3.78c0-.47.38-.85.84-.85z"/><path fill="#407FF3" d="M324.55 41.9c.16 0 .46-.1.77-.1.4 0 .7.1.85.24.16.16.23.4.23.62 0 .3-.07.46-.23.62-.23.23-.54.3-.92.3-.16 0-.24 0-.3 0v1.24h-.4V41.9zm.4 1.38c.06 0 .14 0 .3 0 .46 0 .77-.24.77-.62 0-.4-.3-.62-.7-.62-.15 0-.3 0-.38 0v1.24zM326.94 43.82c0 .54.3.77.77.77.32 0 .48-.1.63-.1l.08.32c-.14.08-.38.15-.7.15-.68 0-1.06-.46-1.06-1.08 0-.62.38-1.16 1-1.16.7 0 .92.6.92 1 0 .08 0 .15 0 .15h-1.62v-.08zm1.16-.3c0-.24-.08-.63-.54-.63-.38 0-.54.38-.62.6h1.16zM328.95 43.35c0-.23 0-.46 0-.7h.3v.47c.08-.3.32-.46.63-.46.07 0 .07 0 .07 0v.38c-.07 0-.07 0-.15 0-.3 0-.47.24-.54.47 0 .08 0 .16 0 .16v1.16h-.4v-1.47h.1zM330.34 44.43c.15.08.3.16.54.16.3 0 .38-.17.38-.32 0-.16-.07-.3-.38-.4-.4-.14-.54-.37-.54-.6 0-.3.3-.62.77-.62.24 0 .4.08.55.15l-.08.32c-.07-.08-.23-.15-.46-.15-.22 0-.38.15-.38.3 0 .16.16.24.4.4.38.15.53.3.53.6 0 .4-.3.63-.77.63-.23 0-.46-.08-.62-.16l.08-.3zM334.12 43.74c0 .77-.54 1.16-1.08 1.16s-1-.47-1-1.08c0-.7.46-1.16 1.07-1.16.63 0 1.02.38 1.02 1.08zm-1.7 0c0 .46.23.85.62.85.38 0 .6-.4.6-.86 0-.4-.14-.85-.6-.85-.4 0-.62.45-.62.84zM334.58 43.28c0-.24 0-.4 0-.62h.3v.38c.1-.23.4-.38.7-.38.3 0 .78.15.78.92v1.32h-.3v-1.24c0-.3-.17-.62-.48-.62-.23 0-.46.16-.54.4 0 .07 0 .07 0 .14v1.32h-.38v-1.62h-.08zM338.6 44.28c0 .15 0 .38 0 .54h-.4v-.3c-.15.14-.38.3-.7.3-.45 0-.68-.3-.68-.62 0-.54.46-.77 1.3-.77v-.08c0-.15-.07-.46-.45-.46-.24 0-.4.07-.54.14l-.08-.23c.15-.06.46-.14.7-.14.7 0 .84.46.84.85v.78zm-.4-.54c-.46 0-.92.08-.92.46 0 .23.16.4.4.4.3 0 .45-.17.53-.4 0-.08 0-.08 0-.15v-.3zM339.2 41.66h.4v3.16h-.4v-3.16z"/><path fill="#fff" d="M346.92 40.73h17.28c.47 0 .85.38.85.85v3.78c0 .46-.38.85-.85.85h-17.28c-.46 0-.84-.38-.84-.84v-3.78c0-.47.38-.85.84-.85z"/><path fill="#407FF3" d="M353.1 41.9c.15-.1.46-.1.7-.1.38 0 .6.1.84.24.15.08.23.3.23.54 0 .3-.23.54-.54.7.3.07.62.3.62.77 0 .23-.08.46-.23.6-.24.17-.54.32-1 .32-.24 0-.47 0-.62 0V41.9zm.38 1.22h.4c.37 0 .6-.23.6-.54 0-.3-.23-.46-.6-.46-.17 0-.32 0-.32 0v1h-.08zm0 1.4c.08 0 .16 0 .3 0 .4 0 .78-.16.78-.63 0-.4-.38-.55-.77-.55h-.32v1.16zM355.95 42.04c0 .16-.08.23-.23.23-.16 0-.23-.07-.23-.23 0-.15.06-.23.22-.23.15 0 .23.16.23.24zm-.46 2.78v-2.16h.37v2.16h-.38zM356.57 41.66h.38v3.16h-.38v-3.16zM357.57 41.66h.4v3.16h-.4v-3.16z"/><path fill="#fff" d="M370.7 40.73h17.27c.46 0 .84.38.84.85v3.78c0 .46-.37.85-.83.85h-17.3c-.45 0-.83-.38-.83-.84v-3.78c0-.47.38-.85.85-.85z"/><path fill="#407FF3" d="M377.47 42.12h-.92v-.3h2.24v.3h-.94v2.7h-.4v-2.7zM380.33 44.28c0 .15 0 .38 0 .54h-.3v-.3c-.16.14-.4.3-.7.3-.47 0-.7-.3-.7-.62 0-.54.46-.77 1.3-.77v-.08c0-.15-.06-.46-.45-.46-.23 0-.4.06-.54.14l-.08-.23c.16-.07.47-.14.7-.14.7 0 .85.46.85.84v.78h-.07zm-.4-.54c-.45 0-.9.07-.9.46 0 .23.14.38.37.38.3 0 .47-.15.54-.38 0-.08 0-.08 0-.16v-.3zM381.18 42.66l.3.46c.08.15.16.23.24.3.07-.15.15-.22.23-.38l.3-.46h.47l-.7 1 .78 1.08h-.47l-.3-.46c-.08-.16-.16-.23-.24-.4-.08.17-.16.24-.24.4l-.3.46h-.47l.76-1.08-.7-1.08h.32v.16z"/><path fill="#A7C7FF" d="M394.6 160.2h-78.46v.48h78.46v-.47z"/><path fill="#64CE64" d="M347.93 52.84v9.1c0 .77-.62 1.4-1.4 1.4H331.8c-.77 0-1.38-.63-1.38-1.4v-9.1c0-.4.15-.77.46-1 .23-.24.54-.3.92-.3h14.74c.3 0 .62.14.92.3.3.23.47.6.47 1z"/><path fill="#209D5B" d="M347.46 51.84l-6.55 4.7c-1 .7-2.38.7-3.3 0l-6.65-4.7c.24-.24.55-.3.93-.3h14.74c.23 0 .6.06.84.3z"/><path fill="#64CE64" d="M347.93 70.66v9.1c0 .77-.62 1.4-1.4 1.4H331.8c-.77 0-1.38-.63-1.38-1.4v-9.1c0-.4.15-.77.46-1 .23-.24.54-.3.92-.3h14.74c.3 0 .62.14.92.3.3.23.47.6.47 1z"/><path fill="#209D5B" d="M347.46 69.66l-6.55 4.7c-1 .7-2.38.7-3.3 0l-6.65-4.7c.24-.24.55-.3.93-.3h14.74c.23-.1.6.06.84.3z"/><path fill="#64CE64" d="M347.93 88.86v9.1c0 .77-.62 1.4-1.4 1.4H331.8c-.77 0-1.38-.63-1.38-1.4v-9.1c0-.38.15-.77.46-1 .23-.23.54-.3.92-.3h14.74c.3 0 .62.14.92.3.3.23.47.62.47 1z"/><path fill="#209D5B" d="M347.46 87.86l-6.55 4.7c-1 .7-2.38.7-3.3 0l-6.65-4.7c.24-.23.55-.3.93-.3h14.74c.23-.1.6.07.84.3z"/><path fill="#64CE64" d="M348.16 107.3v9.1c0 .77-.62 1.4-1.4 1.4h-14.72c-.78 0-1.4-.63-1.4-1.4v-9.1c0-.4.16-.77.47-1 .24-.24.55-.3.94-.3h14.8c.32 0 .62.14.93.3.23.23.4.6.4 1z"/><path fill="#209D5B" d="M347.46 106.3l-6.55 4.7c-1 .7-2.38.7-3.3 0l-6.65-4.7c.24-.24.55-.3.93-.3h14.74c.23-.1.6.06.84.3z"/><path fill="#64CE64" d="M348.16 125.8v9.1c0 .78-.62 1.4-1.4 1.4h-14.72c-.78 0-1.4-.62-1.4-1.4v-9.1c0-.38.16-.76.47-1 .24-.22.55-.3.94-.3h14.8c.32 0 .62.15.93.3.23.24.4.63.4 1z"/><path fill="#209D5B" d="M347.46 124.8l-6.55 4.7c-1 .7-2.38.7-3.3 0l-6.65-4.7c.24-.22.55-.3.93-.3h14.74c.23-.08.6.08.84.3z"/><path fill="#fff" d="M323.16 54.7h4.63c.22 0 .45.22.45.45v4.63c0 .23-.23.46-.46.46h-4.64c-.23 0-.46-.23-.46-.46v-4.63c0-.23.23-.46.46-.46zM323.16 72.12h4.63c.22 0 .45.23.45.47v4.6c0 .25-.23.48-.46.48h-4.64c-.23 0-.46-.23-.46-.47v-4.6c0-.25.23-.48.46-.48zM323.16 90.33h4.63c.22 0 .45.23.45.46v4.62c0 .23-.23.46-.46.46h-4.64c-.23 0-.46-.23-.46-.46V90.8c0-.24.23-.47.46-.47zM323.16 109.07h4.63c.22 0 .45.23.45.46v4.63c0 .23-.23.47-.46.47h-4.64c-.23 0-.46-.24-.46-.47v-4.63c0-.3.23-.46.46-.46zM351.1 54.7h35.55c.24 0 .47.22.47.45v4.63c0 .23-.23.46-.47.46H351.1c-.24 0-.47-.23-.47-.46v-4.63c0-.23.23-.46.46-.46zM351.1 72.12h35.55c.24 0 .47.23.47.47v4.6c0 .25-.23.48-.47.48H351.1c-.24 0-.47-.23-.47-.47v-4.6c0-.25.23-.48.46-.48zM351.1 90.33h35.55c.24 0 .47.23.47.46v4.62c0 .23-.23.46-.47.46H351.1c-.24 0-.47-.23-.47-.46V90.8c0-.24.23-.47.46-.47zM351.1 109.07h35.55c.24 0 .47.23.47.46v4.63c0 .23-.23.47-.47.47H351.1c-.24 0-.47-.24-.47-.47v-4.63c0-.3.23-.46.46-.46zM323.16 127.58h4.63c.22 0 .45.23.45.47v4.63c0 .23-.23.46-.46.46h-4.64c-.23 0-.46-.23-.46-.46v-4.63c0-.3.23-.47.46-.47zM351.1 127.58h35.55c.24 0 .47.23.47.47v4.63c0 .23-.23.46-.47.46H351.1c-.24 0-.47-.23-.47-.46v-4.63c0-.3.23-.47.46-.47z"/><path fill="#D82435" d="M178.7 23.45V6.4l23.92 1.78c1 .07 1.85.84 1.85 1.92v9.18c0 1-.78 1.86-1.78 1.93l-24 2.25zM178.67 6.4c.7 0 1.16.47 1.16 1.16v51.22h-2.94V8.26c0-1 .78-1.8 1.77-1.86z"/><path fill="#FED433" d="M178.5 64.87c3.42 0 6.2-2.76 6.2-6.17 0-3.4-2.78-6.17-6.2-6.17-3.4 0-6.16 2.76-6.16 6.17 0 3.4 2.77 6.17 6.17 6.17z"/><path fill="#D3A100" d="M178.5 62.48c2.1 0 3.8-1.7 3.8-3.78 0-2.1-1.7-3.78-3.8-3.78-2.07 0-3.77 1.7-3.77 3.78 0 2.1 1.7 3.78 3.78 3.78z"/></svg>