<svg width="172" height="32" viewBox="0 0 172 32" fill="none" xmlns="http://www.w3.org/2000/svg">
<g clip-path="url(#clip0_6877_64243)">
<g clip-path="url(#clip1_6877_64243)">
<path d="M149.176 23.914C149.561 24.2069 149.939 24.5051 150.308 24.8138C150.585 25.0433 150.854 25.2834 151.123 25.5209C151.564 25.2148 152.007 24.9088 152.453 24.6106C153.039 24.2227 153.627 23.8375 154.224 23.4602C154.817 23.0855 155.414 22.7135 156.023 22.3546C156.633 21.9984 157.245 21.6475 157.876 21.3203L146.72 22.2834C147.166 22.5235 147.58 22.79 147.989 23.0644C148.395 23.3388 148.791 23.6211 149.176 23.914Z" fill="#E86E24"/>
<mask id="mask0_6877_64243" style="mask-type:luminance" maskUnits="userSpaceOnUse" x="5" y="10" width="12" height="15">
<path d="M5.5249 10.9219H16.562V24.4313H5.5249V10.9219Z" fill="white"/>
</mask>
<g mask="url(#mask0_6877_64243)">
<path d="M13.4643 18.8546C13.4643 20.4193 12.3852 21.6093 10.9076 21.6093C9.41414 21.6093 8.33233 20.4193 8.33233 18.8546V11.1289H5.5249V18.9602C5.5249 21.9681 7.36134 24.2003 10.9076 24.2003C14.438 24.2003 16.2744 21.9681 16.2744 18.9602V11.1289H13.4643V18.8546Z" fill="#2B7EC1"/>
</g>
<path d="M21.1531 14.7085C21.1531 13.7533 22.2507 13.3945 23.0449 13.3945C23.7283 13.3945 24.628 13.6636 25.0792 14.2388L27.0054 12.1333C25.9236 11.1807 24.5383 10.8008 23.0977 10.8008C20.5937 10.8008 18.2348 12.223 18.2348 14.9433C18.2348 19.1914 24.2138 17.9302 24.2138 20.2732C24.2138 21.173 23.1874 21.6057 22.2692 21.6057C21.3325 21.6057 20.3984 21.1545 19.8206 20.3999L17.8206 22.5951C19.029 23.7113 20.4697 24.1994 22.1082 24.1994C24.7362 24.1994 27.0212 22.8485 27.0212 20.0014C27.0212 15.537 21.1531 17.0304 21.1531 14.7085Z" fill="#2B7EC1"/>
<path d="M38.6524 18.9038H40.94V20.9751C40.4176 21.2653 39.5178 21.6057 38.2935 21.6057C35.9003 21.6057 34.3304 19.8774 34.3304 17.5001C34.3304 15.1227 35.9003 13.3945 38.2935 13.3945C39.7157 13.3945 40.6339 13.8087 41.3912 14.6003L43.3701 12.4393C42.0931 11.252 40.3094 10.8008 38.2935 10.8008C34.3146 10.8008 31.4148 13.4103 31.4148 17.5001C31.4148 21.5872 34.3146 24.1994 38.2935 24.1994C40.1643 24.1994 41.9849 23.8379 43.6419 22.9751V16.3127H38.6524V18.9038Z" fill="#2B7EC1"/>
<path d="M46.0715 23.8753H48.7708V10.2656H46.0715V23.8753Z" fill="#2B7EC1"/>
<path d="M55.8848 21.7137C54.5339 21.7137 53.7239 20.814 53.7239 19.4973C53.7239 18.1833 54.5339 17.2836 55.8848 17.2836C57.2331 17.2836 58.0432 18.1833 58.0432 19.4973C58.0432 20.814 57.2331 21.7137 55.8848 21.7137ZM55.8848 14.9062C53.183 14.9062 51.022 16.7057 51.022 19.4973C51.022 22.2889 53.183 24.0884 55.8848 24.0884C58.5841 24.0884 60.7451 22.2889 60.7451 19.4973C60.7451 16.7057 58.5841 14.9062 55.8848 14.9062Z" fill="#2B7EC1"/>
<path d="M67.8558 21.717C66.5048 21.717 65.6948 20.8172 65.6948 19.5006C65.6948 18.1866 66.5048 17.2868 67.8558 17.2868C69.2067 17.2868 70.0168 18.1866 70.0168 19.5006C70.0168 20.8172 69.2067 21.717 67.8558 21.717ZM68.7212 14.9095C67.6051 14.9095 66.5602 15.2156 65.9481 16.0625H65.9112V10.2656H63.2119V23.8753H65.6948V22.7249H65.7317C66.146 23.3529 67.1909 24.0917 68.4125 24.0917C71.0089 24.0917 72.7186 22.2209 72.7186 19.5745C72.7186 17.1417 71.2068 14.9095 68.7212 14.9095Z" fill="#2B7EC1"/>
<path d="M80.0649 20.6161C80.0649 21.6953 79.0728 22.252 78.0121 22.252C77.4158 22.252 76.7324 21.9486 76.7324 21.2995C76.7324 20.1095 78.5688 20.0383 79.3973 20.0383H80.0649V20.6161ZM78.553 14.9062C77.1308 14.9062 75.6875 15.3733 74.698 16.31L76.1387 17.7876C76.7139 17.1385 77.4527 16.7427 78.3366 16.7427C79.2733 16.7427 80.0649 17.3548 80.0649 18.31C77.8142 18.31 74.1387 18.3628 74.1387 21.3866C74.1387 23.1544 75.6163 24.0884 77.2548 24.0884C78.3551 24.0884 79.4343 23.7111 80.0279 22.7744H80.0649V23.8721H82.5504V19.4261C82.5504 16.5105 81.7034 14.9062 78.553 14.9062Z" fill="#2B7EC1"/>
<path d="M84.9065 23.8753H87.6057V10.2656H84.9065V23.8753Z" fill="#2B7EC1"/>
<path d="M100.822 19.4483H100.788L97.8535 11.1289H93.6028V23.8758H96.4129V14.0999H96.4472L99.6715 23.8758H101.814L105.162 14.0999H105.199V23.8758H108.007V11.1289H103.777L100.822 19.4483Z" fill="#2B7EC1"/>
<path d="M115.658 20.6161C115.658 21.6953 114.666 22.252 113.606 22.252C113.012 22.252 112.329 21.9486 112.329 21.2995C112.329 20.1095 114.162 20.0383 114.991 20.0383H115.658V20.6161ZM114.147 14.9062C112.722 14.9062 111.284 15.3733 110.292 16.31L111.735 17.7876C112.307 17.1385 113.046 16.7427 113.93 16.7427C114.867 16.7427 115.658 17.3548 115.658 18.31C113.408 18.31 109.735 18.3628 109.735 21.3866C109.735 23.1544 111.21 24.0884 112.848 24.0884C113.949 24.0884 115.028 23.7111 115.621 22.7744H115.658V23.8721H118.144V19.4261C118.144 16.5105 117.297 14.9062 114.147 14.9062Z" fill="#2B7EC1"/>
<path d="M120.5 23.8745H123.202V15.125H120.5V23.8745Z" fill="#2B7EC1"/>
<path d="M121.851 10.8008C120.989 10.8008 120.284 11.5026 120.284 12.3681C120.284 13.2309 120.989 13.9354 121.851 13.9354C122.717 13.9354 123.416 13.2309 123.416 12.3681C123.416 11.5026 122.717 10.8008 121.851 10.8008Z" fill="#2B7EC1"/>
<path d="M125.812 23.8753H128.513V10.2656H125.812V23.8753Z" fill="#2B7EC1"/>
<path d="M149.098 23.9558C149.485 24.2499 149.863 24.5491 150.234 24.859C150.512 25.0895 150.782 25.3307 151.052 25.569C151.494 25.2616 151.939 24.9543 152.386 24.6551C152.974 24.2657 153.564 23.879 154.163 23.5C154.758 23.1239 155.357 22.7501 155.968 22.3899C156.58 22.0324 157.194 21.68 157.827 21.3516L146.634 22.3183C147.081 22.5595 147.497 22.8269 147.907 23.1025C148.315 23.3781 148.712 23.6618 149.098 23.9558Z" fill="#E86E24"/>
<mask id="mask1_6877_64243" style="mask-type:luminance" maskUnits="userSpaceOnUse" x="144" y="21" width="14" height="8">
<path d="M144.623 21.3047H157.862V28.8341H144.623V21.3047Z" fill="white"/>
</mask>
<g mask="url(#mask1_6877_64243)">
<path d="M156.209 22.729C155.661 23.1768 155.105 23.6112 154.546 24.0404C153.985 24.4671 153.413 24.8882 152.847 25.3015C152.272 25.7149 151.698 26.1253 151.12 26.5254L150.7 26.8168L150.435 26.573C150.083 26.2498 149.736 25.9214 149.402 25.5823C149.061 25.2487 148.735 24.8989 148.41 24.5491C148.095 24.1993 147.78 23.8417 147.48 23.4708C147.184 23.0999 146.89 22.7213 146.633 22.3183L144.701 28.833L156.135 27.7573L157.827 21.3516C157.299 21.831 156.757 22.2813 156.209 22.729Z" fill="#E86E24"/>
</g>
<mask id="mask2_6877_64243" style="mask-type:luminance" maskUnits="userSpaceOnUse" x="134" y="4" width="35" height="20">
<path d="M134.976 4.52344H168.744V23.3816H134.976V4.52344Z" fill="white"/>
</mask>
<g mask="url(#mask2_6877_64243)">
<path d="M164.392 14.7224C164.342 14.7168 164.286 14.7198 164.234 14.725C164.13 14.7301 164.027 14.746 163.921 14.7619C163.717 14.7966 163.514 14.8361 163.307 14.876C162.897 14.958 161.994 15.2576 161.584 15.3315C161.375 15.3688 161.168 15.4032 160.959 15.4349C160.855 15.4482 160.75 15.4641 160.644 15.4774C160.54 15.4907 160.429 15.5066 160.315 15.504C160.09 15.504 160.059 15.2628 160.26 15.2336C160.361 15.2203 160.456 15.1937 160.556 15.1675L160.858 15.0851C161.062 15.0349 161.642 14.8443 161.851 14.8044C162.264 14.7224 162.801 14.5846 163.23 14.5606C163.442 14.5473 163.664 14.5447 163.884 14.5606C163.995 14.5713 164.107 14.5846 164.22 14.6082C164.279 14.6215 164.332 14.6374 164.392 14.6588C164.448 14.6825 164.586 14.688 164.631 14.7434C164.575 14.7091 164.448 14.725 164.392 14.7224ZM166.405 15.7423C166.405 15.7423 165.121 13.0427 162.214 13.8373C159.307 14.6322 159.026 13.8373 159.026 13.8373C159.026 13.8373 164.896 10.2637 159.77 8.67125C141.948 3.12916 141.848 4.40876 142.809 5.39173C143.558 6.15971 143.807 6.53354 144.286 6.80357C145.133 6.92288 145.98 7.06584 146.825 7.22468C148.529 7.54015 150.219 7.93467 151.889 8.4171C152.728 8.65019 153.554 8.92835 154.377 9.2331C155.203 9.54044 156 9.87401 156.808 10.359C157.205 10.6132 157.591 10.9578 157.84 11.4399C158.102 11.9245 158.073 12.5366 157.864 12.9792C157.443 13.872 156.696 14.4176 155.929 14.8228C156.532 14.2137 157.109 13.517 157.306 12.783C157.398 12.4173 157.34 12.0889 157.16 11.8185C156.98 11.5433 156.67 11.3313 156.337 11.1433C154.891 10.4252 153.213 9.92166 151.592 9.41596C149.956 8.92022 148.299 8.46475 146.645 7.98786C146.11 7.83419 145.572 7.68052 145.035 7.52427C142.369 7.1002 139.74 6.68167 139.198 6.62884C136.079 6.33222 135.176 6.21549 135.007 6.81687C135.076 7.25387 136.241 8.42486 137.31 9.02107C137.63 9.01848 137.911 9.02365 138.041 9.03437C138.26 9.05284 138.507 9.05542 138.742 9.06096L139.46 9.08202C139.939 9.09532 140.418 9.11379 140.897 9.13484C141.855 9.1825 142.814 9.25157 143.77 9.36793C144.249 9.4263 144.728 9.49279 145.204 9.58551C145.438 9.63316 145.678 9.6834 145.911 9.74952C146.028 9.78388 146.147 9.82119 146.261 9.86367C146.316 9.88731 146.375 9.91132 146.428 9.9405C146.48 9.96931 146.536 10.004 146.57 10.0543C146.525 10.0144 146.467 9.9985 146.412 9.98261C146.353 9.96673 146.295 9.95639 146.237 9.94826C146.121 9.9272 146.001 9.91649 145.882 9.90578C145.647 9.88731 145.406 9.87401 145.17 9.86367C144.694 9.84483 144.214 9.82894 143.738 9.81601C142.782 9.78683 141.824 9.75765 140.868 9.70704C140.392 9.6834 139.912 9.6568 139.433 9.62245C139.195 9.60398 138.954 9.5881 138.713 9.56408C138.665 9.55891 138.613 9.55374 138.562 9.5482C138.576 9.58551 138.597 9.62762 138.634 9.67527C138.806 9.89802 139.722 11.0317 141.149 11.3498C141.612 11.294 142.075 11.2519 142.536 11.2227C143.187 11.1883 143.836 11.175 144.487 11.1828C145.136 11.1935 145.787 11.2253 146.433 11.2914C146.756 11.3232 147.081 11.3656 147.404 11.4266C147.56 11.4584 147.722 11.4901 147.881 11.5352C147.958 11.5563 148.037 11.5828 148.114 11.612C148.188 11.6438 148.268 11.6756 148.32 11.7313C148.249 11.6996 148.167 11.6915 148.09 11.6863C148.011 11.6782 147.931 11.673 147.849 11.673C147.69 11.6678 147.529 11.6678 147.367 11.6704L146.401 11.6863C145.758 11.6915 145.109 11.697 144.466 11.6863C143.82 11.6782 142.861 11.8267 142.216 11.7897C141.985 11.7738 141.76 11.7868 141.549 11.7842C141.551 11.8267 141.559 11.861 141.559 11.9087C141.551 12.3538 142.205 12.7989 143.635 12.9818C143.687 12.9633 143.751 12.95 143.83 12.9552C144.026 12.9736 144.22 12.971 144.426 12.9685L145.043 12.9633C145.453 12.9659 145.869 12.971 146.279 12.9869C147.102 13.0187 147.926 13.0745 148.749 13.1908C149.157 13.2492 149.567 13.3209 149.975 13.4213C150.179 13.4745 150.378 13.5329 150.576 13.6068C150.676 13.6441 150.772 13.6866 150.864 13.7368C150.957 13.7896 151.211 13.8428 151.267 13.9355C151.185 13.8665 150.93 13.848 150.833 13.8214C150.735 13.7978 150.637 13.7819 150.536 13.7712C150.335 13.742 150.131 13.7261 149.927 13.7158C149.522 13.6892 149.115 13.6733 148.707 13.6574C147.889 13.6282 147.074 13.5964 146.253 13.554C145.845 13.5355 145.435 13.5089 145.025 13.4797C144.99 13.4771 144.958 13.4745 144.924 13.472C144.926 13.5196 144.937 13.5647 144.964 13.6016C145.323 14.0918 146.139 14.5794 146.856 14.8653H146.875C147.074 14.8653 147.275 14.8653 147.471 14.8705C147.87 14.8812 148.268 14.8997 148.665 14.9289C149.459 14.9898 150.25 15.0825 151.037 15.2388C151.426 15.3156 152.154 15.4456 152.199 15.5358C152.127 15.4693 153.072 16.0204 152.983 15.9887C152.892 15.9569 152.8 15.9329 152.704 15.9144C152.514 15.8719 152.323 15.8402 152.127 15.8191C151.744 15.7663 151.352 15.729 150.962 15.6946L150.147 15.6255C149.279 15.8878 146.97 16.4497 144.384 16.545C138.046 16.7836 136.648 15.8668 139.327 17.9014C142.61 20.3971 142.544 20.1322 147.526 19.6579C148.892 19.5308 148.982 19.642 149.983 20.3151C151.826 21.5496 148.278 23.4808 149.922 23.2743C151.161 23.1177 152.09 20.8898 152.09 20.8898C152.09 20.8898 152.659 20.9083 153.713 20.7654C154.325 20.8976 154.656 21.2397 154.851 21.605L155.802 21.523C155.746 21.1362 155.563 20.7654 155.381 20.4658C156.162 20.2936 157.067 20.0554 158.097 19.7163C160.331 18.9797 161.205 17.7503 161.205 17.7503C161.205 17.7503 162.981 17.7452 163.543 17.6258C165.332 17.2443 165.173 16.9502 165.843 16.9425C166.513 16.9343 168.761 16.8604 168.758 16.6695C168.755 16.4789 166.405 15.7423 166.405 15.7423Z" fill="#2B7EC1"/>
</g>
</g>
</g>
<defs>
<clipPath id="clip0_6877_64243">
<rect width="171.429" height="32" fill="white"/>
</clipPath>
<clipPath id="clip1_6877_64243">
<rect width="176.298" height="32.4226" fill="white" transform="translate(-1 0.789062)"/>
</clipPath>
</defs>
</svg>
