<svg xmlns="http://www.w3.org/2000/svg" width="300" height="300" fill="none"><path fill="#459744" d="M121.82 100.55L59.2 62.68l24.7-43.6c15.23-25.7 43.17-26.86 61.88 5.22 2.7 4.64 11.2 18.98 11.2 18.98l-35.16 57.27z"/><path fill="#66D165" d="M155.54 94.7l73.85 3.16 34.1-60.8-21.56 11.52-16.9-30.32c-9.5-12.8-11.1-18-56.47-18H113.9l.35.17c17.56 3.24 26.82 16.33 29.4 21.9l33.13 61.06-21.24 11.3z"/><path fill="#459744" d="M205.22 143.63l63.85-35.73 25.13 43.45c14.5 26.2 1.52 51.2-35.4 51.44-5.35.03-21.92.25-21.92.25l-31.66-59.42z"/><path fill="#66D165" d="M192.86 176.84l-39.62 62.9 35.2 60.26.9-24.6 34.52.43c15.77-1.87 21-.67 43.72-40.3l27.3-47.76-.33.2c-11.56 13.72-26.7 14.17-32.78 13.63h-69.05l.14-24.76z"/><path fill="#459744" d="M127.3 192.86l-1.8 73.63-49.88-.1c-29.73-.68-44.52-24.58-26.04-56.84 2.68-4.67 10.88-19.2 10.88-19.2l66.84 2.5z"/><path fill="#66D165" d="M105.26 166.03l-33.72-66.3-69.37.13 20.6 13.22L4.88 142.9c-6.4 14.66-10.1 18.63 12.32 58.42l26.98 47.92v-.4c-5.88-17 1.45-30.4 4.95-35.4l35-60.1 21.1 12.7z"/></svg>